<?xml version="1.0" encoding="UTF-8" standalone="no"?>
<svg
   xmlns:dc="http://purl.org/dc/elements/1.1/"
   xmlns:cc="http://creativecommons.org/ns#"
   xmlns:rdf="http://www.w3.org/1999/02/22-rdf-syntax-ns#"
   xmlns:svg="http://www.w3.org/2000/svg"
   xmlns="http://www.w3.org/2000/svg"
   xmlns:sodipodi="http://sodipodi.sourceforge.net/DTD/sodipodi-0.dtd"
   xmlns:inkscape="http://www.inkscape.org/namespaces/inkscape"
   version="1.0"
   width="1280.000000pt"
   height="1280.000000pt"
   viewBox="0 0 1280.000000 1280.000000"
   preserveAspectRatio="xMidYMid meet"
   id="svg6"
   sodipodi:docname="n_match.svg"
   inkscape:export-filename="/home/jake/code/pomelo/css/n_match.png"
   inkscape:export-xdpi="2.25"
   inkscape:export-ydpi="2.25"
   inkscape:version="0.92.4 5da689c313, 2019-01-14">
  <metadata
     id="metadata12">
    <rdf:RDF>
      <cc:Work
         rdf:about="">
        <dc:format>image/svg+xml</dc:format>
        <dc:type
           rdf:resource="http://purl.org/dc/dcmitype/StillImage" />
      </cc:Work>
    </rdf:RDF>
  </metadata>
  <defs
     id="defs10" />
  <sodipodi:namedview
     pagecolor="#ffffff"
     bordercolor="#666666"
     borderopacity="1"
     objecttolerance="10"
     gridtolerance="10"
     guidetolerance="10"
     inkscape:pageopacity="0"
     inkscape:pageshadow="2"
     inkscape:window-width="640"
     inkscape:window-height="480"
     id="namedview8"
     showgrid="false"
     inkscape:zoom="0.13828125"
     inkscape:cx="1334.2373"
     inkscape:cy="853.33333"
     inkscape:current-layer="svg6" />
  <g
     transform="matrix(0.1047493,0,0,-0.1047493,-30.39568,1310.3005)"
     id="g4"
     style="fill:#000000;stroke:none;stroke-width:0.95466012">
    <path
       d="m 5195,12078 c -3,-7 -149,-728 -325,-1603 -246,-1225 -324,-1593 -337,-1602 -13,-10 -257,-13 -1140,-13 H 2270 l 2,-597 3,-596 105,-29 105,-28 h 898 c 713,0 899,-3 902,-13 6,-15 -488,-2464 -499,-2474 -4,-5 -308,-10 -674,-13 l -667,-5 -82,-33 -83,-34 v -594 -594 h 613 c 344,0 618,-4 626,-9 12,-8 -38,-270 -302,-1573 -175,-859 -317,-1571 -317,-1580 0,-17 35,-18 589,-18 467,0 591,3 599,13 6,7 35,76 66,152 50,128 62,177 145,585 49,245 167,823 261,1285 232,1143 229,1128 243,1137 7,4 487,7 1067,5 l 1055,-2 3,-21 c 2,-12 -125,-655 -282,-1430 L 6360,985 V 827 670 h 594 c 558,0 595,1 600,18 3,9 149,719 326,1576 176,858 325,1565 331,1573 10,11 209,13 1154,13 h 1142 l 6,182 c 12,331 9,994 -5,1005 -7,5 -51,24 -99,41 l -85,32 h -915 c -541,0 -920,4 -929,10 -12,7 24,194 238,1227 139,670 257,1228 262,1241 l 10,22 662,1 663,1 100,26 100,27 6,225 c 4,124 7,393 8,598 l 1,372 h -628 c -487,0 -632,3 -645,13 -15,11 13,153 308,1597 179,872 325,1593 325,1603 0,16 -35,17 -604,17 -474,0 -605,-3 -609,-12 -114,-276 -104,-240 -197,-698 -49,-239 -184,-900 -300,-1469 -115,-569 -213,-1037 -216,-1040 -3,-3 -481,-7 -1063,-9 -839,-2 -1060,0 -1074,10 -16,12 5,122 278,1471 l 295,1458 v 144 145 h -600 c -471,0 -602,-3 -605,-12 z M 7704,7601 c 8,-13 -500,-2460 -515,-2477 -10,-12 -165,-14 -1064,-14 -835,0 -1055,3 -1063,13 -8,9 60,358 238,1236 137,673 251,1230 254,1237 5,12 180,14 1075,14 622,0 1072,-4 1075,-9 z"
       id="path2"
       inkscape:connector-curvature="0"
       style="stroke-width:0.95466012" />
  </g>
</svg>
