<?xml version="1.0" encoding="UTF-8" standalone="no"?>
<svg
   xmlns:dc="http://purl.org/dc/elements/1.1/"
   xmlns:cc="http://creativecommons.org/ns#"
   xmlns:rdf="http://www.w3.org/1999/02/22-rdf-syntax-ns#"
   xmlns:svg="http://www.w3.org/2000/svg"
   xmlns="http://www.w3.org/2000/svg"
   xmlns:sodipodi="http://sodipodi.sourceforge.net/DTD/sodipodi-0.dtd"
   xmlns:inkscape="http://www.inkscape.org/namespaces/inkscape"
   version="1.0"
   width="1280.000000pt"
   height="1280.000000pt"
   viewBox="0 0 1280.000000 1280.000000"
   preserveAspectRatio="xMidYMid meet"
   id="svg6"
   sodipodi:docname="result.svg"
   inkscape:export-filename="/home/jake/code/pomelo/css/result.png"
   inkscape:export-xdpi="2.25"
   inkscape:export-ydpi="2.25"
   inkscape:version="0.92.4 5da689c313, 2019-01-14">
  <metadata
     id="metadata12">
    <rdf:RDF>
      <cc:Work
         rdf:about="">
        <dc:format>image/svg+xml</dc:format>
        <dc:type
           rdf:resource="http://purl.org/dc/dcmitype/StillImage" />
      </cc:Work>
    </rdf:RDF>
  </metadata>
  <defs
     id="defs10" />
  <sodipodi:namedview
     pagecolor="#ffffff"
     bordercolor="#666666"
     borderopacity="1"
     objecttolerance="10"
     gridtolerance="10"
     guidetolerance="10"
     inkscape:pageopacity="0"
     inkscape:pageshadow="2"
     inkscape:window-width="640"
     inkscape:window-height="480"
     id="namedview8"
     showgrid="false"
     inkscape:zoom="0.13828125"
     inkscape:cx="-401.35593"
     inkscape:cy="853.33333"
     inkscape:current-layer="svg6" />
  <g
     transform="matrix(0.11283191,0,0,-0.11283191,-82.879615,1362.3836)"
     id="g4"
     style="fill:#000000;stroke:none;stroke-width:0.88627422">
    <path
       style="stroke-width:0.88627422"
       d="m 5221,11910 c -371.9803,-63.237 -1206.6085,185.456 -983.5327,-491.235 65.0301,-225.298 -35.1172,-457.332 -140.9009,-116.812 -458.5639,501.497 -1356.778,215.349 -1519.8722,-422.633 -316.1247,-832.317 124.9772,-1738.2774 740.7151,-2305.5826 359.9087,-422.9746 986.6983,-600.3834 1337.7711,-969.5772 -416.0071,172.3071 -676.9039,-383.8957 -226.374,-518.6507 355.3485,-45.0225 469.5839,652.9304 506.3786,129.2488 327.4914,-356.6555 12.067,-933.0615 458.7301,-1163.5836 439.6508,-201.0575 -168.2121,-499.5022 213.9797,-716.5588 451.4989,-294.5981 593.7939,-953.2057 -107.4481,-954.0316 -240.8445,-133.1136 -636.8481,-239.4148 -458.5541,-428.8712 -311.9489,-309.9866 -818.551,-495.472 -661.4804,-1056.2638 85.0227,-524.343 -260.502,-863.1137 -679.599,-1052.5246 -292.8113,-554.0452 1315.9334,-780.4567 901.564,-773.2404 1381.0733,-217.92968 2808.7566,-206.02926 4177.3067,87.7003 627.4293,18.0225 569.8111,860.9722 -0.2276,917.4601 -483.8608,266.0877 -112.5602,957.1689 -359.1728,1375.2292 -297.9894,227.7566 -567.8695,574.6771 -930.0246,707.472 -88.8296,283.7828 -866.101,282.2869 -559.3136,767.5128 255.9956,294.4552 680.1143,593.8316 411.3771,964.3069 234.4769,223.7155 584.682,410.9643 428.1782,783.0849 90.8513,223.4869 261.2527,939.1053 446.3739,437.8619 582.7813,-155.9992 583.4896,566.9116 125.3789,622.6261 143.5215,55.6317 1032.8016,629.0156 792.1599,460.5489 764.3554,524.9903 1444.7927,1400.6009 1286.9607,2379.1286 -69.062,501.486 -472.7512,1019.858 -1025.3102,958.094 -317.2336,56.659 -702.3958,-414.112 -703.1213,-393.502 101.6132,385.013 58.5129,938.398 -484.5786,747.316 -995.2607,39.785 -1991.579,31.757 -2987.3639,25.476 z m -1633,-685 c 361.5822,-68.242 440.8581,-1196.339 560,-885 -491.1163,476.775 -590.577,-761.3836 -6.8837,-367.8015 118.5858,216.0195 185.0112,366.0205 181.827,24.5396 82.6892,-757.079 185.3169,-1516.6719 405.8067,-2247.7381 -450.999,488.4806 -1128.0272,736.8761 -1476.833,1327.7704 -398.5207,530.3286 -624.4926,1323.9106 -174.18,1895.2546 109.9598,162.264 300.3997,319.606 510.263,252.975 z m 5972,-32 c 575.735,-358.82 643.269,-1184.948 319.2792,-1736.5563 C 9581.406,8792.4833 8971.983,8355.2221 8394.4811,7954.715 c -481.0394,-568.3045 287.0037,1064.0824 0.3806,591.5219 C 8506.5752,9104.8772 8564.5012,9672.1694 8650,10235 c -8.8089,-730.3784 1051.971,27.171 336.9574,188.679 -554.1503,-285.039 632.8442,763.306 283.2387,762.84 93.3441,29.838 195.231,32.578 289.8039,6.481 z m -5540,-858 c 283.7155,-60.25 34.2673,-115.499 -213.97,-46.707 49.2223,63.952 142.89,77.505 213.97,46.707 z m 5037,-15 c 346.0193,-369.4132 -605.7428,-333.3334 -131.2742,9.852 l 67.8405,8.464 z M 4562,7531 c 339.4851,-549.2242 -650.5815,-7.0296 0,0 z m 3958,11 c 149.003,-572.6064 -638.8502,-15.7951 0,0 z"
       id="path2"
       inkscape:connector-curvature="0" />
  </g>
</svg>
