<?xml version="1.0" encoding="UTF-8" standalone="no"?>
<!-- Created with Inkscape (http://www.inkscape.org/) -->

<svg
   xmlns:dc="http://purl.org/dc/elements/1.1/"
   xmlns:cc="http://creativecommons.org/ns#"
   xmlns:rdf="http://www.w3.org/1999/02/22-rdf-syntax-ns#"
   xmlns:svg="http://www.w3.org/2000/svg"
   xmlns="http://www.w3.org/2000/svg"
   xmlns:sodipodi="http://sodipodi.sourceforge.net/DTD/sodipodi-0.dtd"
   xmlns:inkscape="http://www.inkscape.org/namespaces/inkscape"
   version="1.1"
   id="svg2"
   width="1280"
   height="1280"
   viewBox="0 0 1280 1280"
   sodipodi:docname="antipong.svg"
   inkscape:version="0.92.4 5da689c313, 2019-01-14"
   inkscape:export-filename="/home/jake/grafica/antipong/antipong_alpha.png"
   inkscape:export-xdpi="74.604927"
   inkscape:export-ydpi="74.604927">
  <metadata
     id="metadata8">
    <rdf:RDF>
      <cc:Work
         rdf:about="">
        <dc:format>image/svg+xml</dc:format>
        <dc:type
           rdf:resource="http://purl.org/dc/dcmitype/StillImage" />
        <dc:title />
      </cc:Work>
    </rdf:RDF>
  </metadata>
  <defs
     id="defs6" />
  <sodipodi:namedview
     pagecolor="#ffffff"
     bordercolor="#666666"
     borderopacity="1"
     objecttolerance="10"
     gridtolerance="10"
     guidetolerance="10"
     inkscape:pageopacity="0"
     inkscape:pageshadow="2"
     inkscape:window-width="1366"
     inkscape:window-height="708"
     id="namedview4"
     showgrid="false"
     inkscape:zoom="0.184375"
     inkscape:cx="1045.7268"
     inkscape:cy="1251.1262"
     inkscape:window-x="0"
     inkscape:window-y="0"
     inkscape:window-maximized="1"
     inkscape:current-layer="svg2" />
  <circle
     style="opacity:1;fill:#ffffff;fill-opacity:1;fill-rule:nonzero;stroke:none;stroke-width:0.94129372;stroke-linecap:round;stroke-linejoin:round;stroke-miterlimit:4;stroke-dasharray:none;stroke-dashoffset:0;stroke-opacity:0.40495869;paint-order:markers stroke fill"
     id="path815"
     cx="640.77966"
     cy="636.98309"
     r="513.08472"
     inkscape:export-xdpi="2.9841971"
     inkscape:export-ydpi="2.9841971" />
  <g
     id="g1045"
     inkscape:export-xdpi="2.9841971"
     inkscape:export-ydpi="2.9841971">
    <path
       id="path817"
       d="M 670.67383 241.51953 C 674.63679 241.81605 678.59168 242.17075 682.53711 242.58398 C 678.59168 242.17076 674.63679 241.81604 670.67383 241.51953 z M 725.10938 328.95312 C 727.05066 328.94813 728.99729 328.97292 730.94531 329.01562 C 728.99727 328.97292 727.05069 328.94763 725.10938 328.95312 z M 720.49219 329.01758 C 720.13451 329.02558 719.7773 329.03532 719.41992 329.04492 C 719.77728 329.03492 720.13453 329.02558 720.49219 329.01758 z M 732.79297 329.07031 C 734.16959 329.11121 735.54665 329.16351 736.92578 329.22852 C 735.5466 329.16352 734.16965 329.11122 732.79297 329.07031 z M 715.51367 329.18164 C 715.26445 329.19254 715.01468 329.20119 714.76562 329.21289 C 715.01467 329.20109 715.26447 329.19254 715.51367 329.18164 z M 738.94922 329.33203 C 740.341 329.40953 741.7334 329.50137 743.12695 329.60352 C 741.73361 329.50142 740.3408 329.40951 738.94922 329.33203 z M 710.25586 329.47266 C 709.94959 329.49306 709.64388 329.51551 709.33789 329.53711 C 709.64392 329.51541 709.94954 329.49306 710.25586 329.47266 z M 744.86719 329.73047 C 746.82348 329.88823 748.78213 330.06305 750.74023 330.26953 C 748.78124 330.06299 746.82437 329.88824 744.86719 329.73047 z M 705.27734 329.85938 C 705.07496 329.87737 704.87217 329.89361 704.66992 329.91211 C 704.8721 329.89361 705.07503 329.87727 705.27734 329.85938 z M 750.87891 330.28516 C 752.84489 330.49363 754.81104 330.73245 756.77734 330.99023 C 754.81124 330.73251 752.84468 330.49357 750.87891 330.28516 z M 700.21289 330.36523 C 699.84193 330.40663 699.47199 330.45103 699.10156 330.49414 C 699.47201 330.45094 699.84191 330.40654 700.21289 330.36523 z M 695.51953 330.94141 C 695.2039 330.98331 694.88747 331.02311 694.57227 331.06641 C 694.88756 331.02311 695.20382 330.98331 695.51953 330.94141 z M 758.32422 331.20508 C 759.81161 331.4099 761.29854 331.6262 762.78516 331.85938 C 761.29872 331.62626 759.81142 331.40985 758.32422 331.20508 z M 690.14453 331.71875 C 689.89536 331.75805 689.64732 331.79965 689.39844 331.83984 C 689.64718 331.79974 689.89549 331.75804 690.14453 331.71875 z M 764.63867 332.1582 C 766.09761 332.3987 767.55635 332.65589 769.01367 332.92383 C 767.5561 332.65586 766.09784 332.39872 764.63867 332.1582 z M 685.63672 332.48242 C 685.31111 332.54082 684.98522 332.59835 684.66016 332.6582 C 684.9852 332.5983 685.31113 332.54083 685.63672 332.48242 z M 680.27539 333.50977 C 680.13637 333.53837 679.99829 333.56876 679.85938 333.59766 C 679.99829 333.56876 680.13637 333.53837 680.27539 333.50977 z M 675.9707 334.44727 C 675.60325 334.53077 675.23577 334.61379 674.86914 334.69922 C 675.23585 334.61372 675.60317 334.53083 675.9707 334.44727 z M 666.36914 336.86914 C 666.04246 336.95994 665.71655 337.05214 665.39062 337.14453 C 665.71663 337.05213 666.04239 336.96001 666.36914 336.86914 z M 657.04492 339.70508 C 656.68394 339.82461 656.32474 339.94687 655.96484 340.06836 C 656.32461 339.94691 656.68407 339.82457 657.04492 339.70508 z M 652.71094 341.19922 C 652.42227 341.30238 652.13167 341.40142 651.84375 341.50586 C 652.13176 341.40139 652.42218 341.30241 652.71094 341.19922 z M 647.89062 342.99219 C 647.59159 343.10819 647.29427 343.22634 646.99609 343.34375 C 647.29424 343.22635 647.59163 343.10817 647.89062 342.99219 z M 643.625 344.70898 C 643.39925 344.80298 643.17249 344.89543 642.94727 344.99023 C 643.17245 344.89543 643.39929 344.80295 643.625 344.70898 z M 638.99023 346.70898 C 638.76988 346.80788 638.55184 346.91006 638.33203 347.00977 C 638.55183 346.91007 638.76989 346.80788 638.99023 346.70898 z M 635.03516 348.54492 C 634.74853 348.68198 634.46142 348.81857 634.17578 348.95703 C 634.4614 348.81859 634.74855 348.68196 635.03516 348.54492 z M 630.40234 350.83984 C 630.25373 350.91634 630.10731 350.9954 629.95898 351.07227 C 630.10722 350.99547 630.25382 350.91627 630.40234 350.83984 z M 626.67188 352.82227 C 626.35483 352.99532 626.03829 353.16887 625.72266 353.34375 C 626.03817 353.16893 626.35495 352.99525 626.67188 352.82227 z M 536.80078 356.25391 C 513.45598 356.31591 504.81703 356.99914 491.19922 359.86133 C 456.10191 367.23811 428.4534 381.53389 405.70898 404.06055 C 373.68423 435.77871 346.43142 483.1266 327.92578 539.19922 C 303.52574 613.13216 302.7634 672.97146 325.64453 718.47461 C 332.78721 732.67909 340.2487 741.76753 370.19336 772.74414 C 407.78777 811.63414 419.09157 826.59356 426.67383 847.48242 C 432.35192 863.12541 431.66554 869.2415 419.80469 908.73047 C 411.39016 936.74535 409.60394 944.47553 411.11719 946.29883 C 415.006 950.98463 445.34843 970.22592 464.33398 980.04492 C 475.11985 985.62322 484.1018 990.03104 484.29297 989.83984 C 484.48412 989.64874 486.86822 979.43698 489.5918 967.14648 C 501.6445 912.75736 507.38903 891.52736 512.03516 884.20117 C 520.84983 870.30187 543.99343 856.53968 579.59961 844.02344 C 589.05961 840.69807 596.80078 837.51421 596.80078 836.94922 C 596.80078 834.01601 581.39509 809.5198 573.29688 799.57617 C 568.18396 793.29814 551.88255 775.88545 537.07227 760.88086 C 507.03439 730.44886 499.07658 720.34142 489.67969 700.68555 C 470.98068 661.57201 469.45812 612.72435 484.95703 549.14062 C 495.11 507.48846 512.6516 464.90778 534.86328 428 C 547.49608 407.00888 555.96747 396.05506 573.95703 377.44922 C 582.12041 369.00619 588.80078 361.69083 588.80078 361.19336 C 588.80078 358.65878 562.75787 356.18491 536.80078 356.25391 z M 552.29883 431.75 C 550.90496 434.08383 549.5237 436.4367 548.16602 438.82422 C 549.52348 436.43712 550.9052 434.08343 552.29883 431.75 z M 949.57031 728.37695 C 949.53031 728.38835 949.48111 728.41242 949.41992 728.44922 C 945.7246 730.66735 716.80078 1009.2216 716.80078 1011.5 C 716.80078 1012.123 718.98724 1011.8713 721.66016 1010.9395 C 725.39441 1009.6377 747.74323 982.69754 818.1543 894.62305 C 868.55353 831.58062 916.53319 771.36078 924.77539 760.80078 C 933.01762 750.24078 942.33484 738.40071 945.48047 734.49023 C 948.42948 730.82415 950.17114 728.2055 949.57031 728.37695 z M 966.40039 760 C 966.31779 759.9174 965.66924 760.40139 964.40039 761.39648 C 962.86039 762.60424 961.59961 763.86307 961.59961 764.19531 C 961.59961 765.51218 962.91371 764.6652 965.00391 762 C 965.999 760.73115 966.48298 760.08259 966.40039 760 z M 961.01758 766.40039 C 959.13792 766.40039 772.80078 992.14858 772.80078 994.42578 C 772.80078 995.52248 773.65463 995.40302 778.21289 993.66992 C 782.12215 992.18362 812.59648 954.83221 905.54297 837.59961 C 961.46859 767.0611 961.98409 766.40039 961.01758 766.40039 z M 972.38281 803.19922 C 970.15268 803.19922 846.26314 950.71207 840.89453 959.75977 C 838.58488 963.65227 846.36118 958.56213 854.91602 950.58203 C 864.47272 941.66743 906.77706 888.97687 971.64258 805.19922 C 972.4942 804.09922 972.82823 803.19922 972.38281 803.19922 z M 830.83398 825.35938 C 830.17403 825.45007 828.09138 827.19521 824.64648 830.50977 C 811.37411 843.27996 673.59961 1013.5936 673.59961 1017.2305 C 673.59961 1024.5704 678.15772 1019.2203 780.67383 891.54688 C 817.39733 845.81148 833.19097 825.03532 830.83398 825.35938 z M 773.69531 831.82227 C 772.06351 832.35051 770.45856 832.88034 768.87891 833.41211 C 770.45779 832.88061 772.06432 832.35024 773.69531 831.82227 z M 777.50195 840 C 774.36902 840 763.50619 851.92623 735.71875 885.875 C 703.91984 924.72475 689.59961 943.49155 689.59961 946.31445 C 689.59961 947.53765 689.1372 949.85685 688.57227 951.46875 C 687.65864 954.07575 687.81206 954.1348 689.95703 952 C 691.73281 950.2327 766.35972 857.0361 778.03906 842 C 779.10487 840.62787 778.93585 840 777.50195 840 z M 601.86719 851.19922 C 600.34356 851.19922 502.08071 971.44042 497.26367 979.19922 C 495.89781 981.39922 494.32872 985.36 493.77734 988 L 492.77539 992.80078 L 498.53516 986.40039 C 501.70253 982.88039 526.36834 952.74052 553.34766 919.42383 C 597.18988 865.28316 607.20431 851.19922 601.86719 851.19922 z M 556.10742 864.63672 C 555.7049 864.56992 554.72912 864.86702 553.04883 865.50586 C 545.07448 868.5377 540.89288 872.32004 528.45703 887.74805 C 515.76464 903.49428 508.80078 915.01692 508.80078 920.27148 C 508.80078 921.88234 509.07156 923.19922 509.4043 923.19922 C 509.87614 923.19922 548.57065 875.3708 555.7207 865.94922 C 556.33923 865.13419 556.50995 864.70351 556.10742 864.63672 z M 698.32617 879.79102 C 698.19206 880.19493 698.03233 880.70862 697.84961 881.33008 C 698.03184 880.71028 698.19229 880.19445 698.32617 879.79102 z M 691.86523 904.57812 C 690.35478 910.74004 688.69212 917.63029 686.90039 925.19531 C 688.69197 917.63085 690.35488 910.73975 691.86523 904.57812 z M 581.94531 924.98047 C 581.60669 925.02017 580.8376 925.80406 579.47461 927.19922 C 577.7552 928.95922 563.26005 946.52673 547.26172 966.23633 C 525.83036 992.63923 518.73012 1002.423 520.28711 1003.4102 C 525.21433 1006.5343 524.2524 1007.4887 556.64062 967.34375 C 574.68156 944.98215 579.3884 937.67888 581.47461 928.80078 C 582.10688 926.11011 582.38068 924.92945 581.94531 924.98047 z M 585.12891 974.79102 C 584.63488 976.44758 584.19434 977.95433 583.72461 979.54297 C 584.19293 977.95915 584.63642 976.44242 585.12891 974.79102 z M 581.95703 985.53711 C 581.45762 987.24653 581.01818 988.77582 580.55664 990.375 C 581.01663 988.78128 581.45942 987.24032 581.95703 985.53711 z M 579.2207 995.01562 C 578.80668 996.47024 578.45005 997.74948 578.07812 999.07812 C 578.45028 997.74874 578.80641 996.47114 579.2207 995.01562 z M 576.92188 1003.2324 C 576.61144 1004.3668 576.36019 1005.3223 576.09375 1006.3223 C 576.35873 1005.3278 576.61336 1004.3599 576.92188 1003.2324 z M 558.28711 1003.332 C 557.56331 1003.028 552.07847 1010.1374 552.03516 1011.5996 C 552.01556 1012.2596 552.73689 1012.8008 553.63867 1012.8008 C 555.11457 1012.8008 558.45383 1006.2279 558.36523 1003.4961 C 558.36223 1003.4061 558.33531 1003.3523 558.28711 1003.332 z M 575.26758 1009.4609 C 574.91507 1010.8408 574.59298 1012.1286 574.375 1013.0898 C 574.593 1012.1279 574.91438 1010.8436 575.26758 1009.4609 z M 574.20898 1013.8574 C 574.15128 1014.1297 574.08703 1014.4213 574.04492 1014.6445 C 574.08682 1014.422 574.15144 1014.129 574.20898 1013.8574 z M 573.96289 1015.1621 C 573.93309 1015.3558 573.89261 1015.5824 573.88281 1015.7129 C 573.89281 1015.5832 573.93339 1015.3546 573.96289 1015.1621 z M 573.88281 1015.7188 C 573.86751 1015.9284 573.87486 1016.0679 573.91406 1016.1055 C 573.97766 1016.1665 574.13636 1016.2371 574.33789 1016.3125 C 574.17786 1016.1236 574.02644 1015.9256 573.88281 1015.7188 z M 575.62305 1016.6777 C 575.95613 1016.7587 576.33974 1016.8447 576.75977 1016.9336 C 576.34092 1016.8446 575.95576 1016.7589 575.62305 1016.6777 z M 577.24805 1017.0332 C 578.37446 1017.2618 579.75214 1017.5077 581.32422 1017.7676 C 579.76764 1017.5099 578.36626 1017.2602 577.24805 1017.0332 z M 585.10156 1018.3438 C 585.99428 1018.4761 586.77509 1018.6032 587.73438 1018.7363 C 586.7821 1018.604 585.98791 1018.4754 585.10156 1018.3438 z "
       style="fill:#000000;stroke-width:1.60000002" />
    <path
       inkscape:connector-curvature="0"
       id="path829"
       d="m 725.10938,328.95312 c -37.45969,0.10542 -73.53431,9.15706 -103.00391,26.44532 -17.3541,10.18073 -45.51221,38.93152 -60.91992,62.20117 -28.80293,43.49989 -51.287,99.05558 -62.27539,153.88086 -3.0732,15.33344 -3.63653,23.28438 -3.66993,51.71875 -0.0431,36.61256 1.03668,43.49682 10.64649,67.8457 7.57221,19.18612 16.85415,31.53839 47.68945,63.46289 35.91566,37.18432 47.635,51.69413 57.01172,70.58789 12.97013,26.13432 13.31893,23.71177 -18.00195,125.13868 -10.37233,33.58892 -18.44154,61.88972 -18.70313,65.48442 0.14363,0.2068 0.29505,0.4048 0.45508,0.5937 2.04065,0.7639 10.85003,2.2064 20.86133,3.3828 21.2335,2.495 65.23035,3.4514 68.1289,1.4805 0.95082,-0.6465 8.74778,-31.7758 17.32618,-69.1758 8.57841,-37.4 16.67668,-70.2848 17.99609,-73.07812 3.4009,-7.20007 18.01608,-21.07462 29.59961,-28.09961 13.27636,-8.05163 37.14653,-17.1476 66.15039,-25.20704 13.2,-3.66796 30.10726,-8.48594 37.57227,-10.70703 53.60734,-15.95003 90.59537,-57.67233 114.30078,-128.93164 13.62008,-40.94251 19.83561,-76.24389 21.19726,-120.37695 2.40625,-77.99027 -11.41169,-121.96853 -50.99414,-162.29492 -33.50963,-34.13941 -75.80348,-54.9611 -139.91601,-68.88281 -17.10961,-3.71527 -34.42404,-5.51667 -51.45117,-5.46876 z"
       style="fill:#ff0000;stroke-width:1.60000002" />
  </g>
  <path
     style="fill:#000000;stroke-width:1.60000002"
     d="m 637.52539,125.05859 c -79.79661,0.0145 -151.17041,16.80194 -223.92578,52.49805 -55.51776,27.23878 -94.0854,54.80579 -137.64258,98.38672 -43.59151,43.61528 -72.23889,83.69964 -99.2793,138.91602 -24.58373,50.19981 -39.95303,101.93721 -48.10933,161.9414 -3.9506,29.06294 -3.9259,97.13801 0.047,126.39844 11.9746,88.19845 42.64661,166.79734 91.98434,235.7207 63.39779,88.56478 154.10696,155.63668 256.61133,189.74418 36.48854,12.1413 83.56091,21.7992 120.38867,24.7011 230.93678,18.1964 444.69856,-117.8047 525.25376,-334.18161 40.2297,-108.05984 42.8308,-227.54628 7.3535,-337.82031 C 1105.44,404.38005 1062.3615,334.22084 1004.0703,275.92969 965.84336,237.7027 922.08062,205.64955 876,182.12891 802.82765,144.77999 735.2635,127.50886 653.59961,125.27734 c -5.39755,-0.14749 -10.75445,-0.21971 -16.07422,-0.21875 z m 17.61328,25.22852 c 8.12802,0.17998 16.04798,3.54481 20.14649,10.01562 3.08784,4.87515 3.27581,6.80868 2.37695,24.3086 -1.03064,20.06528 -2.56867,25.50763 -6.9707,24.66797 -2.17328,-0.41455 -2.7826,-2.74477 -3.16211,-12.09571 l -0.46875,-11.58398 h -13.46094 -13.45899 l -0.4707,11.58398 c -0.38672,9.5287 -0.96606,11.67645 -3.26562,12.11524 -4.43701,0.84664 -6.00391,-6.14619 -6.00391,-26.78711 0,-16.72344 0.38218,-19.36442 3.3418,-23.12695 4.93264,-6.27084 13.26846,-9.27764 21.39648,-9.09766 z m -54.76562,3.38672 c 4.57451,-0.0282 9.33243,0.72619 12.33203,2.27734 6.23657,3.22506 7.81113,8.89642 9.0664,32.67383 0.99408,18.8299 0.85025,20.54852 -1.8125,21.57031 -1.59128,0.61063 -3.5755,0.42841 -4.4082,-0.40429 -0.83269,-0.83269 -2.57245,-10.39582 -3.86523,-21.25196 -3.10381,-26.06418 -7.02457,-31.72261 -16.60743,-23.96289 l -3.67578,2.97656 2.67774,21.42383 c 2.51215,20.10162 2.50969,21.54818 -0.0293,23.43946 -4.49504,3.34835 -6.27853,-0.45193 -10.64648,-22.67774 -2.23322,-11.36352 -4.99309,-21.2826 -6.13282,-22.04297 -2.66929,-1.7808 -11.13858,-0.23653 -12.76757,2.32813 -1.9372,3.04988 -1.60865,6.21975 2.71484,26.21679 3.0412,14.06616 3.57627,19.11888 2.20313,20.77344 -4.98558,6.00724 -7.33369,1.90006 -13.39454,-23.41406 -4.99099,-20.84583 -4.98991,-22.60997 0.0254,-28.57031 5.1628,-6.13565 13.33769,-8.86393 22.45899,-7.4961 5.1805,0.77686 8.02335,0.39357 10.63476,-1.43554 2.26093,-1.58361 6.65205,-2.39561 11.22657,-2.42383 z m 105.47851,2.38867 c 1.19881,-0.007 2.55131,-9.1e-4 4.0918,0.008 16.47474,0.0913 27.5085,5.02048 30.28125,13.5293 2.22775,6.83632 0.23827,11.61913 -4.5332,10.89844 -2.14819,-0.32447 -3.91456,-2.44243 -5.08985,-6.09766 -2.08199,-6.4751 -8.27733,-9.36177 -20.40625,-9.50977 -8.55264,-0.1043 -11.85839,2.65047 -10.35742,8.63086 1.02872,4.09875 1.88353,4.45583 21.35156,8.88477 18.42323,4.19127 22.53217,23.06406 6.79297,31.20313 -5.378,2.78111 -10.22579,2.80608 -22.38281,0.11523 -10.60186,-2.34664 -15.02449,-4.59032 -18.31836,-9.29297 -3.18091,-4.54122 -3.21493,-12.25047 -0.0606,-13.46094 3.16654,-1.21512 7.17969,2.19896 7.17969,6.10742 0,4.24691 9.39764,7.91972 21.11719,8.25391 6.82255,0.19454 9.80319,-0.38851 10.91015,-2.13281 4.45283,-7.01659 -0.68656,-11.11474 -18.16015,-14.48242 -11.47924,-2.21238 -18.38871,-7.85925 -19.69727,-16.09766 -0.77528,-4.88091 -0.16396,-6.62289 3.93164,-11.19922 4.15417,-4.64175 4.95798,-5.30896 13.34961,-5.35742 z M 653.9707,160 c -8.99272,0 -17.72834,10.10956 -12.90429,14.93359 0.58666,0.58667 6.70627,1.06641 13.59961,1.06641 h 12.5332 v -5.50977 C 667.19922,163.65447 662.59054,160 653.9707,160 Z m 105.05469,4.63086 c 1.12499,-0.0511 2.41163,0.62076 4.05078,1.6582 1.96104,1.24117 1.93292,2.99827 -0.19922,12.71485 l -2.47461,11.27343 7.39844,2.38282 c 4.06918,1.31078 9.92,2.82201 13,3.35742 5.59688,0.97291 5.60126,0.9674 8.8711,-8.19336 3.85658,-10.80462 7.36912,-13.86916 11.34374,-9.89453 2.50135,2.50132 2.2784,3.80476 -3.42773,19.97265 -3.3575,9.51328 -7.74845,21.07727 -9.75781,25.69727 -2.7066,6.22314 -4.50546,8.40039 -6.94141,8.40039 -4.04242,0 -4.29051,-4.18985 -0.90625,-15.3457 1.31046,-4.31986 2.39039,-8.34386 2.40039,-8.94141 0.0155,-0.97226 -9.66141,-4.17347 -20.89258,-6.91211 -3.87455,-0.94477 -4.26046,-0.46107 -6.73828,8.45117 -3.116,11.20771 -6.46167,14.92308 -10.13281,11.25196 -2.16085,-2.16085 -1.78829,-4.97857 3.47266,-26.26172 5.63592,-22.8001 7.55862,-29.45819 10.93359,-29.61133 z m -231.01367,5.60937 c 5.00015,0.0966 8.6222,2.04992 12.01172,6.07813 4.42058,5.25355 4.49064,7.30361 0.33984,9.92187 -2.07588,1.30942 -3.66959,0.69004 -7.38867,-2.87304 -4.59228,-4.3997 -4.98795,-4.48234 -12.5918,-2.65821 -11.30232,2.71138 -17.98242,7.17335 -17.98242,12.01172 0,6.6948 4.86745,7.88137 16.97852,4.14063 17.38626,-5.37006 25.93124,-3.75282 30.83398,5.83398 2.41084,4.71416 2.25219,7.84293 -0.7168,14.09961 -1.91957,4.0452 -4.8163,6.28747 -12.40039,9.60156 -5.44247,2.37828 -13.85531,4.68345 -18.69531,5.12305 -8.13019,0.73847 -9.13608,0.44578 -13.20117,-3.84765 -2.42,-2.55595 -4.39844,-5.8907 -4.39844,-7.41016 0,-4.46098 4.60475,-5.00304 8.82422,-1.03906 3.27184,3.07373 4.96989,3.4762 11.12305,2.63281 8.23941,-1.12933 19.78798,-6.50687 21.05273,-9.80274 0.46488,-1.21148 0.0451,-3.69857 -0.93359,-5.52734 -2.13897,-3.99672 -7.29736,-4.25271 -18.32227,-0.9082 -12.87673,3.90631 -21.18199,3.19107 -26.66797,-2.29492 -5.26592,-5.26592 -5.94328,-10.63183 -2.24414,-17.78516 2.7579,-5.33322 10.26045,-9.62144 23.64258,-13.51172 4.24054,-1.23276 7.73624,-1.8431 10.73633,-1.78516 z m 313.20898,25.09766 c 3.33176,0.0839 8.7165,2.24648 17.00782,6.69141 13.58201,7.28124 17.35442,11.02838 14.24023,14.14258 -1.41275,1.41274 -3.33175,1.26982 -7.98437,-0.5918 l -6.12305,-2.44922 -11.18164,20.22461 c -10.23355,18.5132 -14.18719,23.10384 -17.25781,20.0332 -2.37797,-2.37795 -0.79788,-7.21164 8.60937,-26.32617 6.04291,-12.27854 9.03479,-20.00599 7.89258,-20.38672 -4.00784,-1.33594 -10.08434,-7.83665 -8.98633,-9.61328 0.64327,-1.04083 1.65998,-1.61968 3.14453,-1.71289 0.20413,-0.0128 0.41656,-0.0173 0.63867,-0.0117 z m 41.99805,22.26172 c 6.27988,0 6.48251,3.55218 0.78906,13.91016 l -5.55664,10.10742 6.77539,4.93359 c 9.5,6.91998 15.82252,10.0091 16.98633,8.29883 11.11589,-16.33546 14.64485,-18.82621 18.3457,-12.94922 1.36161,2.16229 0.19166,4.87642 -5.86132,13.60156 -4.15858,5.99445 -11.35781,15.57387 -15.99805,21.28907 -4.64022,5.7152 -9.66688,10.62812 -11.17188,10.91796 -5.27246,1.01539 -4.80729,-4.4666 1.13868,-13.42187 3.21653,-4.84445 5.46376,-9.43154 4.99414,-10.19141 -1.30049,-2.10424 -17.96525,-12.89648 -19.91407,-12.89648 -0.94189,0 -4.36217,3.9893 -7.59961,8.86523 -5.90464,8.89303 -10.33992,10.86051 -11.45312,5.08008 -1.07576,-5.58597 24.09823,-47.54492 28.52539,-47.54492 z m -448.51172,11.24805 1.79492,3.93945 c 1.6787,3.68432 1.3069,4.21142 -5.7539,8.17578 -44.05549,24.73536 -72.34186,45.53783 -104.14258,76.58594 -12.64726,12.34796 -29.07569,30.01195 -36.50586,39.25195 -45.71439,56.84939 -77.76825,124.34686 -91.55859,192.79883 -7.67339,38.08861 -9.11211,63.36907 -7.55664,132.80078 0.19362,8.64269 -0.12254,9.64828 -3.17579,10.08399 -4.85,0.69206 -5.35979,-2.37517 -6.46875,-38.88477 -2.10651,-69.3525 9.87528,-132.75416 37.30469,-197.39649 38.85589,-91.57091 111.22407,-169.8967 203.91016,-220.69531 z m 206.10742,11.54687 c 9.99303,0.008 19.95197,0.38373 29.85938,1.125 3.96296,0.29651 7.91785,0.65123 11.86328,1.06445 49.31786,5.16533 97.17997,19.4375 141.44727,42.50196 115.55107,60.20544 193.53942,170.86332 212.01362,300.82812 3.7107,26.10499 3.247,88.07836 -0.8476,113.28516 -14.2226,87.55586 -49.1294,157.11858 -110.27931,219.76367 -34.66944,35.51714 -64.06337,56.91734 -108.07031,78.68164 -41.15072,20.35157 -85.19834,33.72247 -128.75976,39.08597 -18.66255,2.2978 -82.21524,1.8074 -101.20118,-0.7813 C 472.66776,1020.3819 370.73298,956.20762 306.49414,859.45703 276.65395,814.5145 255.39393,761.11362 246.52734,708.82617 232.0283,623.3234 244.96285,534.49849 282.53125,461.56055 c 34.07498,-66.15555 78.12813,-115.6482 139.02344,-156.1875 42.05213,-27.99495 93.76615,-48.88113 143.80664,-58.08203 25.18693,-4.6311 50.4271,-6.91739 75.45312,-6.89649 z m 294.73633,18.80469 c 8.55099,0 9.22454,0.31829 16.88867,7.98242 6.695,6.69501 7.65766,8.37242 5.97461,10.40039 -2.80538,3.38026 -3.64543,3.14242 -11.21484,-3.18164 -6.83592,-5.71125 -12.1787,-6.90099 -17.70508,-3.94336 -3.70164,1.98105 -3.98861,5.67744 -0.69726,8.96875 1.79778,1.79779 1.98199,3.17022 0.73828,5.49414 -1.5377,2.8732 -1.9955,2.92375 -6.3086,0.69336 -4.37463,-2.2622 -4.79875,-2.19422 -7.13867,1.14649 -4.19746,5.9927 -3.06481,10.80051 4.10742,17.42187 4.25561,3.92877 6.26061,6.9625 5.65039,8.55274 -0.52021,1.35563 -1.86846,2.46198 -2.99609,2.45898 -3.88064,-0.0113 -12.48457,-6.37296 -15.6582,-11.57813 -5.04072,-8.26742 -4.1545,-15.4069 3.29492,-26.5625 9.7433,-14.59072 14.32178,-17.85351 25.06445,-17.85351 z m 52.8418,45.37305 c 1.5558,-0.005 3.176,1.45898 7.0293,5.1875 15.54732,15.04385 16.76282,31.11263 2.89648,38.2832 -2.578,1.33311 -6.07534,5.14615 -7.77344,8.47461 -1.698,3.32845 -4.97901,6.91338 -7.29101,7.9668 -8.06857,3.67628 -13.27942,1.91394 -22.96094,-7.76758 -3.77724,-3.77723 -8.26428,-8.83127 -9.97266,-11.23047 l -3.10742,-4.36133 17.10156,-16.32617 c 9.40539,-8.97987 18.80051,-17.44292 20.87891,-18.80469 1.3546,-0.88758 2.26572,-1.4189 3.19922,-1.42187 z M 989.08789,316 l -4.94336,4.69922 c -2.7191,2.58464 -4.94531,5.1199 -4.94531,5.63476 0,0.51485 2.21387,3.62183 4.91797,6.90235 5.2887,6.41614 6.4282,6.85375 11.1875,4.30664 4.5794,-2.45085 3.89075,-9.51841 -1.56055,-16.00391 z m -18.10547,16.83789 -5.49023,4.38086 c -3.02016,2.40979 -5.49216,4.74126 -5.49219,5.18164 -3e-5,0.4404 2.79649,3.86001 6.21484,7.59961 6.67417,7.30146 9.70369,8.2514 13.66993,4.28516 3.84053,-3.84056 3.05523,-7.47924 -3.19336,-14.7793 z m 49.06638,19.90234 c 3.8744,0.0613 7.3838,1.76263 11.4473,5.00977 7.6488,6.11217 11.7012,13.90779 11.7012,22.52734 0,9.12512 -4.65,14.21351 -23.0274,25.17969 -15.6766,9.35456 -19.6473,10.56736 -21.21482,6.48242 -1.0746,-2.80034 3.13122,-8.02978 9.04102,-11.24414 9.0793,-4.93818 9.0228,-4.39397 1.7402,-16.65234 l -6.7968,-11.44141 -4.26958,2.76953 c -2.3484,1.52314 -6.92853,4.51588 -10.17773,6.65039 -6.235,4.096 -9.29297,3.71774 -9.29297,-1.15039 0,-3.52107 6.39658,-9.3075 22.14648,-20.03515 8.1375,-5.54265 13.7217,-8.17452 18.7031,-8.09571 z m -0.6191,10.64454 c -1.9731,0.0632 -4.0168,0.69947 -6.1777,1.90039 -3.5422,1.96856 -3.5357,1.98772 3.9804,13.39648 6.2573,9.49787 7.9965,11.17407 10.3106,9.93555 7.3307,-3.92324 8.0093,-14.11178 1.3808,-20.74024 -3.1121,-3.11209 -6.2057,-4.59755 -9.4941,-4.49218 z m 37.0625,33.94921 c 0.1478,0.009 0.2748,0.0311 0.3769,0.0703 3.7841,1.45213 2.6716,6.94418 -2.0683,10.20898 -2.42,1.6669 -9.4416,5.74643 -15.6016,9.06641 -6.16,3.31997 -12.46,7.15593 -14,8.52539 -3.7174,3.30574 -3.5399,10.27094 0.461,18.11328 1.7933,3.51513 2.8318,7.08573 2.3066,7.93555 -2.5824,4.1784 -10.6394,-1.1532 -13.6309,-9.02149 -0.8449,-2.22214 -1.5351,-7.34579 -1.5351,-11.38476 0,-6.43042 0.7566,-8.05872 6.0879,-13.09571 7.1156,-6.72285 33.0205,-20.69142 37.6035,-20.41797 z m 17.8906,38.14649 c 0.1631,-0.01 0.2999,-0.003 0.4082,0.0176 1.545,0.29448 3.0415,2.16988 3.3262,4.16797 0.4556,3.19668 -1.5604,4.60396 -16.7988,11.72265 -9.5247,4.44955 -18.5792,9.21987 -20.1192,10.59961 -3.4769,3.11512 -3.5974,10.22584 -0.2832,16.63477 1.3836,2.67573 2.1264,5.88051 1.6504,7.12109 -1.3451,3.50526 -5.2094,2.66937 -8.8086,-1.90625 -6.464,-8.21762 -6.3249,-22.89309 0.2754,-29.09375 4.7653,-4.47671 35.294,-18.96346 40.3496,-19.26367 z m 13.8516,116.67578 c 3.3298,-0.10927 3.6589,2.42363 7.2597,25.44336 4.449,28.44168 4.0489,98.39531 -0.7363,128.80078 -15.6898,99.69243 -60.9507,189.38515 -130.7871,259.18164 -23.18592,23.1727 -45.14895,40.67407 -78.43945,62.50777 -14.99763,9.8363 -29.56078,19.0703 -32.36328,20.5196 -5.07764,2.6257 -5.09993,2.6203 -6.18555,-1.7051 -0.8205,-3.2691 -0.37574,-4.7567 1.80274,-6.0234 15.87088,-9.2282 62.96051,-41.87098 76.85546,-53.27738 94.76648,-77.7941 150.43908,-183.4463 162.51368,-308.4043 2.3551,-24.37211 1.0505,-78.91494 -2.4492,-102.39844 -3.8213,-25.64171 -3.8827,-23.93379 0.9004,-24.48828 0.6164,-0.0715 1.1532,-0.14064 1.6289,-0.15625 z M 218.45703,765.19922 c 0.25923,-0.0119 0.52188,-0.0115 0.79297,0.002 1.30124,0.0647 2.77705,0.41867 4.78906,1.02149 6.7324,2.01707 10.70131,6.65515 14.89649,17.41015 4.80269,12.31245 1.96427,24.87699 -6.07422,26.89453 -7.32768,1.83912 -9.73906,-2.98797 -4.06055,-8.12695 4.08565,-3.6975 4.04533,-8.64002 -0.14844,-18.38867 -3.85312,-8.95682 -6.76247,-10.6939 -12.07812,-7.21094 -4.58971,3.00728 -4.63235,4.20483 -0.57422,16 4.6632,13.55382 4.26087,20.78408 -1.47656,26.52149 -5.4968,5.4968 -14.71984,6.32705 -20.46485,1.84179 -5.44896,-4.25413 -13.73118,-23.84078 -13.9082,-32.89258 -0.133,-6.79968 0.47732,-8.2912 5.07422,-12.40039 6.23177,-5.57062 7.68362,-5.75267 10.08398,-1.26757 1.54802,2.8925 1.19646,3.98101 -2.34375,7.26367 -5.01686,4.6519 -5.04776,5.29424 -0.87304,17.65625 4.15556,12.30531 7.94106,16.10439 13.51562,13.56445 5.00698,-2.28133 5.10681,-6.16645 0.56055,-21.61914 -3.04782,-10.35952 -3.18131,-12.18335 -1.19922,-16.28711 1.22751,-2.54144 4.62482,-6.01481 7.55078,-7.71875 2.51781,-1.46624 4.1229,-2.18023 5.9375,-2.26367 z m 27.88867,52.63476 c 2.87739,0.10973 4.72519,1.36902 8.5586,4.98438 4.64815,4.38377 5.89648,6.76372 5.89648,11.25391 0,4.3095 1.06884,6.53539 4.39844,9.14648 5.98539,4.69379 8.27655,9.23462 8.34375,16.54102 0.0729,7.92406 -5.16504,13.24991 -25.125,25.53906 -14.34852,8.83422 -17.92503,10.26052 -20.15039,8.03515 -3.43461,-3.43461 -0.008,-7.26113 14.82031,-16.54296 14.49147,-9.07089 22.51172,-15.04764 22.51172,-16.77735 0,-0.36432 -0.83421,-2.49687 -1.85547,-4.73828 -2.81279,-6.17341 -7.73513,-5.19703 -27.87109,5.52539 -9.91549,5.28 -18.7548,9.59961 -19.64258,9.59961 -2.4019,0 -3.93992,-6.261 -2.08203,-8.47656 0.88701,-1.05776 8.95053,-5.88461 17.91992,-10.72461 17.7864,-9.59774 22.02956,-13.78342 19.24609,-18.98438 -3.35152,-6.26239 -7.43439,-5.69091 -27.39453,3.82422 -10.50917,5.00981 -20.19034,8.69336 -21.51367,8.18555 -3.58829,-1.37696 -2.90656,-6.73528 1.19336,-9.375 7.64355,-4.92128 33.70656,-16.02157 39.41406,-16.78711 1.29955,-0.17431 2.37291,-0.26509 3.33203,-0.22852 z M 278.72266,880 c 15.76824,0 26.91908,14.93156 22.08593,29.57617 -1.44738,4.38556 -5.792,9.05681 -17.24609,18.54297 -14.20877,11.76752 -18.98508,14.32355 -21.69531,11.61328 -2.65225,-2.65226 -0.50722,-7.00626 6.13281,-12.44726 3.96,-3.24492 7.19922,-6.6111 7.19922,-7.48047 0,-0.86936 -2.9371,-5.90647 -6.52734,-11.19336 -6.16274,-9.07503 -6.72191,-9.48874 -10,-7.41406 -16.07022,10.17076 -20.27149,11.14516 -20.27149,4.70117 0,-3.90934 2.70611,-6.2244 19.84375,-16.96875 C 269.21157,882.05374 273.92173,880 278.72266,880 Z m 1.375,9.64844 c -2.16079,-0.0511 -4.44901,0.45491 -6.72657,1.67383 -3.82632,2.0478 -3.40756,3.4359 4.26758,14.11914 3.2235,4.48689 6.46172,8.1582 7.19531,8.1582 0.73357,0 2.88274,-1.96889 4.7754,-4.375 6.80892,-8.65614 -0.14833,-19.35491 -9.51172,-19.57617 z m 32.22851,30.91406 c 2.71661,-0.0315 5.60944,0.58414 8.49024,1.95117 3.25965,1.5468 8.72837,6.35927 12.15429,10.69336 5.26051,6.65507 6.22852,9.06278 6.22852,15.48828 0,5.6152 -0.85152,8.37823 -3.25,10.54883 -2.89824,2.6229 -3.50947,2.67999 -5.66406,0.52539 -1.88994,-1.89 -2.05307,-3.36947 -0.75,-6.79687 0.91618,-2.4097 1.66406,-5.08492 1.66406,-5.94532 0,-2.7917 -14.75564,-17.42773 -17.57031,-17.42773 -2.93278,0 -8.0293,4.77567 -8.0293,7.52344 0,0.9188 3.86883,6.39105 8.59766,12.16015 4.72885,5.7691 9.06089,12.33445 9.62695,14.58985 1.64346,6.548 -2.81967,15.07145 -9.31445,17.78515 v -0.002 c -6.6998,2.7997 -6.81502,2.80078 -12.91016,0.0586 -4.83947,-2.1774 -17.29107,-14.34952 -22.16602,-21.66992 -3.84273,-5.7704 -3.32253,-13.47356 1.26563,-18.75586 3.68661,-4.24429 4.05108,-4.3394 6.68359,-1.74804 2.32755,2.2912 2.47506,3.4189 0.90039,6.875 -2.9496,6.4736 -2.41762,7.94196 6.35352,17.53906 7.0636,7.7287 8.94523,8.94409 13.20117,8.5293 7.78011,-0.7583 7.66564,-7.35119 -0.29297,-16.92969 -8.18936,-9.8563 -9.94531,-13.39217 -9.94531,-20.03321 0,-8.94295 6.57675,-14.86456 14.72656,-14.95898 z m 43.55274,35.65039 c 0.0688,10e-4 0.13046,0.0128 0.18359,0.0332 4.00506,1.5369 2.58972,6.4682 -4.0625,14.1543 -3.52,4.067 -6.40039,8.01238 -6.40039,8.76758 0,0.7552 4.14117,4.69822 9.20117,8.76172 l 9.19922,7.38672 8.29102,-9.14453 c 7.12616,-7.86082 8.64186,-8.85262 10.79882,-7.0625 1.38018,1.14539 2.50977,2.79016 2.50977,3.65624 0,1.7473 -15.78252,22.99388 -26.76953,36.03518 -7.57853,8.9956 -8.35233,9.4367 -11.31055,6.4785 -2.98814,-2.9881 -2.35058,-5.2698 3.67969,-13.1699 3.08,-4.035 5.60156,-7.9915 5.60156,-8.791 0,-0.7995 -4.13547,-5.08051 -9.18945,-9.51371 l -9.18945,-8.06055 -7.00977,8.01367 c -7.45286,8.51969 -13.37295,10.11289 -14.27149,3.8418 -0.60199,-4.20151 34.4007,-41.46785 38.73829,-41.38672 z m 69.63476,52.58791 12.125,6.334 c 14.56783,7.6107 16.64714,9.6653 13.23633,13.0761 -2.20002,2.2 -3.44144,1.9492 -12.16992,-2.457 l -9.7207,-4.9062 -3.29297,4.623 c -4.43506,6.2285 -4.14179,8.4328 1.54687,11.6699 9.83512,5.5968 7.58434,13.5614 -2.47656,8.7637 -3.11867,-1.4872 -6.54509,-2.6918 -7.61524,-2.6758 -1.07014,0.015 -4.13309,3.7958 -6.80664,8.4004 -5.75949,9.9195 -13.53906,12.6186 -13.53906,4.6973 0,-2.3236 19.7548,-35.8552 25.64258,-43.5254 z m 42.95899,23.3203 c 10.64339,-0.1859 21.439,7.4373 23.71484,18.8164 0.9432,4.716 -4.06972,22.5123 -10.77734,38.2617 -2.90603,6.8233 -5.0132,8.0159 -9.33594,5.2813 -2.01229,-1.2729 -1.93113,-2.7229 0.60547,-10.7754 1.61204,-5.1175 3.2355,-10.1001 3.60742,-11.0723 0.7086,-1.8524 -12.27791,-8.097 -19.86719,-9.5527 -4.09968,-0.7863 -4.74237,-0.1472 -8.8789,8.8359 -4.71405,10.2373 -6.32753,11.2782 -10.97071,7.0762 -2.75071,-2.4894 -2.43861,-3.478 6.875,-21.7461 7.17735,-14.0778 11.07898,-19.9435 14.75586,-22.1856 3.19302,-1.947 6.72369,-2.8775 10.27149,-2.9394 z m 1.89843,9.3769 c -3.30355,-0.1232 -6.71848,1.067 -9.46289,3.9883 -2.0077,2.1371 -3.36956,4.7292 -3.02539,5.7617 0.34418,1.0325 4.56097,3.5754 9.3711,5.6504 11.1776,4.8226 13.76694,4.8233 14.97461,0.012 2.13756,-8.5167 -4.5896,-15.1409 -11.85743,-15.4122 z m 45.99414,8.3926 c 1.04079,0.012 2.13565,0.092 3.28516,0.2383 19.69941,2.5119 27.54883,7.8109 27.54883,18.5977 0,5.3915 -0.53017,6.4726 -3.17774,6.4726 -2.12641,0 -3.96154,-1.8713 -5.54296,-5.6562 -2.74072,-6.5595 -10.04498,-10.3438 -19.97071,-10.3438 -4.82672,0 -6.83009,0.8124 -8.16601,3.3086 -2.93002,5.4748 1.46872,10.1523 11.89843,12.6543 11.78524,2.8272 18.02011,6.7959 21.22266,13.5117 2.19473,4.6024 2.29735,6.2762 0.63281,10.295 -1.09331,2.6394 -3.35472,6.0369 -5.02539,7.5488 -7.55119,6.8338 -35.01872,2.2156 -43.53906,-7.3203 -3.5312,-3.9521 -4.40253,-6.3217 -4.01953,-10.9219 0.39099,-4.6962 1.21233,-5.9773 4.0957,-6.3867 3.62194,-0.5143 4.16743,0.2209 5.82031,7.8379 1.04304,4.8066 5.10051,6.9474 18.33789,9.6816 11.18476,2.3101 15.12807,0.5285 14.31446,-6.4707 -0.41965,-3.6101 -2.09523,-4.7029 -13.16016,-8.5742 -14.65968,-5.1289 -16.63598,-6.4959 -19.58984,-13.5625 -1.84694,-4.4186 -1.8288,-6.023 0.11523,-10.6758 2.95183,-7.0647 7.63442,-10.3173 14.91992,-10.2344 z m 202.75586,6.6309 c 4.07285,-0.1177 7.46633,1.3941 11.2793,4.6894 3.4568,2.9876 4.80598,6.8047 8.05859,22.7891 4.53915,22.3069 4.81877,27.3207 1.5879,28.5605 -4.35776,1.6723 -6.76782,-3.4353 -10.44532,-22.1484 -4.27147,-21.7355 -6.94825,-26.3675 -13.83398,-23.9316 -4.29755,1.5204 -4.55887,2.1324 -4.42383,10.3672 0.0789,4.8135 0.71935,15.6572 1.42383,24.0957 1.0764,12.8932 0.90331,15.4878 -1.08789,16.2519 -4.69264,1.8007 -6.23659,-1.765 -9.24414,-21.3574 -1.68061,-10.9481 -3.51057,-21.0934 -4.06836,-22.5469 -2.22247,-5.7917 -11.22085,-5.2234 -13.38477,0.8457 -0.67905,1.9047 -0.69465,9.5825 -0.0352,17.0625 0.65955,7.48 1.25627,16.6348 1.32617,20.3438 0.0956,5.066 -0.62857,7.1482 -2.90625,8.3672 -4.98173,2.6661 -6.3955,-1.1566 -8.22657,-22.2442 -2.01125,-23.1631 -1.34282,-27.4019 5.18946,-32.8984 4.1484,-3.4907 6.28076,-4.0706 13.9707,-3.793 5.57419,0.2011 11.94643,-0.7679 16.51758,-2.5137 3.16971,-1.2105 5.85903,-1.8688 8.30273,-1.9394 z m -140.33007,3.9414 c 3.41939,0.091 6.67076,0.9273 9.25586,2.6211 6.00189,3.9326 4.08896,6.4894 -5,6.6836 -12.79936,0.2736 -13.26058,0.4312 -15.82618,5.3926 -2.8371,5.4863 -4.90152,21.9123 -3.4707,27.6132 1.1399,4.5417 7.01762,7.627 14.5293,7.627 2.94414,0 6.28496,1.1507 7.46484,2.5723 1.81441,2.1863 1.67735,2.9087 -0.91016,4.8007 -3.40777,2.4919 -10.29476,2.6727 -17.90039,0.4707 -5.71333,-1.6541 -12.82347,-9.2553 -14.35156,-15.3437 -1.30261,-5.19 3.22315,-28.3429 6.52539,-33.3828 3.82743,-5.8414 12.16093,-9.254 19.6836,-9.0547 z m 24.67773,2.2559 c 0.44928,0.049 0.92006,0.2278 1.41406,0.5332 2.65988,1.6439 1.04591,52.6594 -1.77343,56.0566 -2.02193,2.4362 -5.08223,2.9842 -6.8418,1.2246 -1.55453,-1.5545 -1.25542,-21.4146 0.58594,-38.9004 1.39466,-13.2438 3.4703,-19.2548 6.61523,-18.914 z m 36.87891,1.371 c 12.64288,0.1351 18.83814,2.8743 22.48437,9.9395 2.50238,4.8489 2.72717,6.4935 1.14453,8.4004 -3.10531,3.7417 -5.80056,2.8112 -9.36523,-3.2305 -3.22195,-5.4608 -3.55336,-5.5982 -13.35742,-5.5742 -11.09799,0.027 -13.13705,0.8135 -14.64649,5.6582 -2.02366,6.4952 2.06592,8.9066 16.66602,9.8281 14.82517,0.9356 19.42318,2.9262 23.07617,9.9903 4.87709,9.4312 -1.106,19.835 -12.99414,22.5937 -6.41768,1.4892 -21.43465,1.6916 -26.95508,0.3633 -10.23082,-2.4617 -17.19492,-19.6582 -7.96094,-19.6582 2.92733,0 4.4979,1.2023 5.70117,4.3672 2.28834,6.0188 4.00456,6.7806 15.35547,6.8086 13.73376,0.034 18.45735,-1.9653 17.81055,-7.5391 -0.69507,-5.9896 -6.23658,-8.3851 -19.4668,-8.4141 -10.3171,-0.022 -11.27949,-0.3419 -16.40039,-5.4628 -5.99622,-5.9962 -6.60097,-9.4846 -3.09765,-17.8692 2.89569,-6.9303 10.22218,-10.3271 22.00586,-10.2012 z"
     id="path1034"
     inkscape:connector-curvature="0"
     inkscape:export-xdpi="2.9841971"
     inkscape:export-ydpi="2.9841971" />
</svg>
