<?xml version="1.0" encoding="UTF-8" standalone="no"?>
<!-- Created with Inkscape (http://www.inkscape.org/) -->

<svg
   xmlns:dc="http://purl.org/dc/elements/1.1/"
   xmlns:cc="http://creativecommons.org/ns#"
   xmlns:rdf="http://www.w3.org/1999/02/22-rdf-syntax-ns#"
   xmlns:svg="http://www.w3.org/2000/svg"
   xmlns="http://www.w3.org/2000/svg"
   xmlns:sodipodi="http://sodipodi.sourceforge.net/DTD/sodipodi-0.dtd"
   xmlns:inkscape="http://www.inkscape.org/namespaces/inkscape"
   width="250"
   height="250"
   viewBox="0 0 66.145832 66.145834"
   version="1.1"
   id="svg1015"
   inkscape:version="0.92.4 5da689c313, 2019-01-14"
   sodipodi:docname="pomelo.svg"
   inkscape:export-filename="/home/jake/code/pomelo/img/pomelo.png"
   inkscape:export-xdpi="115.19999"
   inkscape:export-ydpi="115.19999">
  <defs
     id="defs1009" />
  <sodipodi:namedview
     id="base"
     pagecolor="#ffffff"
     bordercolor="#666666"
     borderopacity="1.0"
     inkscape:pageopacity="0.0"
     inkscape:pageshadow="2"
     inkscape:zoom="1.4"
     inkscape:cx="62.125509"
     inkscape:cy="60.864386"
     inkscape:document-units="mm"
     inkscape:current-layer="layer1"
     showgrid="false"
     showguides="false"
     inkscape:snap-bbox="true"
     inkscape:bbox-paths="true"
     inkscape:bbox-nodes="true"
     inkscape:snap-bbox-edge-midpoints="true"
     inkscape:snap-bbox-midpoints="true"
     inkscape:object-paths="true"
     inkscape:object-nodes="true"
     inkscape:snap-smooth-nodes="true"
     inkscape:snap-intersection-paths="true"
     inkscape:guide-bbox="true"
     inkscape:snap-midpoints="true"
     inkscape:snap-object-midpoints="true"
     inkscape:snap-center="true"
     inkscape:snap-global="true"
     inkscape:pagecheckerboard="true"
     units="px">
    <sodipodi:guide
       position="16.408396,-45.801619"
       orientation="0,1"
       id="guide2876"
       inkscape:locked="false" />
    <sodipodi:guide
       position="8.3563319,-63.960659"
       orientation="0,1"
       inkscape:locked="false"
       id="guide2882" />
    <sodipodi:guide
       position="21.251426,-50.422739"
       orientation="1,0"
       inkscape:locked="false"
       id="guide2884" />
    <sodipodi:guide
       position="3.5263519,-53.005369"
       orientation="1,0"
       inkscape:locked="false"
       id="guide2888" />
    <sodipodi:guide
       position="16.408396,-55.043839"
       orientation="0,1"
       id="guide2890"
       inkscape:locked="false" />
    <sodipodi:guide
       position="16.421446,-47.185349"
       orientation="0,1"
       id="guide2892"
       inkscape:locked="false" />
    <sodipodi:guide
       position="16.421446,-53.660129"
       orientation="0,1"
       id="guide2894"
       inkscape:locked="false" />
    <sodipodi:guide
       position="16.408396,-50.422739"
       orientation="1,0"
       id="guide2896"
       inkscape:locked="false" />
    <sodipodi:guide
       position="16.408395,-50.422739"
       orientation="0,1"
       id="guide2903"
       inkscape:locked="false" />
    <sodipodi:guide
       position="21.251425,-65.305229"
       orientation="0,1"
       id="guide2905"
       inkscape:locked="false" />
    <sodipodi:guide
       position="19.711054,-57.497389"
       orientation="0,1"
       id="guide2907"
       inkscape:locked="false" />
    <sodipodi:guide
       position="21.251425,-56.100619"
       orientation="0,1"
       id="guide2909"
       inkscape:locked="false" />
    <sodipodi:guide
       position="24.374885,-61.608069"
       orientation="1,0"
       id="guide2917"
       inkscape:locked="false" />
    <sodipodi:guide
       position="31.741166,17.32484"
       orientation="0,1"
       id="guide879"
       inkscape:locked="false" />
    <sodipodi:guide
       position="39.232381,45.456808"
       orientation="0,1"
       id="guide904"
       inkscape:locked="false" />
    <sodipodi:guide
       position="31.720011,30.466247"
       orientation="0,1"
       id="guide906"
       inkscape:locked="false" />
    <sodipodi:guide
       position="31.720011,19.86427"
       orientation="0,1"
       id="guide908"
       inkscape:locked="false" />
    <sodipodi:guide
       position="50.178691,32.736267"
       orientation="1,0"
       id="guide910"
       inkscape:locked="false" />
    <sodipodi:guide
       position="52.675764,32.736267"
       orientation="1,0"
       id="guide914"
       inkscape:locked="false" />
    <sodipodi:guide
       position="54.670368,19.84526"
       orientation="1,0"
       id="guide911"
       inkscape:locked="false" />
    <sodipodi:guide
       position="33.603655,35.619757"
       orientation="0,1"
       id="guide943"
       inkscape:locked="false" />
    <sodipodi:guide
       position="32.7995,25.17581"
       orientation="0,1"
       id="guide947"
       inkscape:locked="false" />
    <sodipodi:guide
       position="40.290716,23.43372"
       orientation="1,0"
       id="guide955"
       inkscape:locked="false" />
  </sodipodi:namedview>
  <metadata
     id="metadata1012">
    <rdf:RDF>
      <cc:Work
         rdf:about="">
        <dc:format>image/svg+xml</dc:format>
        <dc:type
           rdf:resource="http://purl.org/dc/dcmitype/StillImage" />
        <dc:title></dc:title>
      </cc:Work>
    </rdf:RDF>
  </metadata>
  <g
     inkscape:label="Layer 1"
     inkscape:groupmode="layer"
     id="layer1"
     transform="translate(-24.10056,-360.66116)">
    <path
       style="opacity:1;fill:#acb33c;fill-opacity:1;fill-rule:nonzero;stroke:none;stroke-width:15.11811066;stroke-linecap:round;stroke-linejoin:round;stroke-miterlimit:4;stroke-dasharray:none;stroke-dashoffset:0;stroke-opacity:1;paint-order:stroke fill markers"
       d="M 125 13.861328 C 55.964359 13.861328 0 91.6576 0 145.46484 C -1.8947806e-14 199.27205 55.964359 236.71484 125 236.71484 C 194.03558 236.71484 249.99999 199.27205 250 145.46484 C 250.00002 91.6576 194.0356 13.861328 125 13.861328 z M 96.527344 61.972656 L 107.72656 61.972656 L 124.8418 82.195312 L 141.77344 61.972656 L 153.15625 61.972656 L 153.15625 104.04883 L 188.66211 104.04883 L 188.64062 162.29688 L 124.75977 162.29688 L 124.61719 162.29688 L 124.61719 162.29297 C 116.8595 162.25566 110.02887 159.1965 105.04297 154.1582 L 105.10547 190.59375 L 151.1543 190.59375 L 151.1543 200.03125 L 96.527344 200.03125 L 96.527344 141.00781 C 93.094675 142.85441 88.771994 143.83203 83.652344 143.83203 L 70.775391 143.83203 L 70.775391 162.29688 L 61.337891 162.29688 L 61.337891 104.72266 L 83.652344 104.72266 C 88.771865 104.72266 93.094716 105.64626 96.527344 107.40234 L 96.527344 61.972656 z M 105.00586 76.128906 L 105.00586 111.1582 C 110.03737 106.04832 116.94718 102.95117 124.75977 102.95117 C 132.64038 102.95117 139.64308 106.1012 144.72461 111.29102 L 144.67578 76.128906 L 127.87891 95.150391 L 121.7207 95.150391 L 105.00586 76.128906 z M 124.75977 112.62891 C 113.64239 112.62891 105.00586 121.58754 105.00586 132.54492 C 105.00586 143.58235 113.64239 152.69922 124.75977 152.69922 C 135.87709 152.69922 144.67578 143.50234 144.67578 132.54492 C 144.67578 121.58754 135.87709 112.62891 124.75977 112.62891 z M 153.1543 112.62891 L 153.1543 128.57031 L 179.10938 128.57031 L 179.10938 112.62891 L 153.1543 112.62891 z M 70.775391 113.19922 L 70.775391 135.35547 L 83.251953 135.35547 C 91.889893 135.35547 96.769531 131.67622 96.769531 124.07812 C 96.769531 116.71984 91.889893 113.19922 83.251953 113.19922 L 70.775391 113.19922 z M 152.8418 137.15039 C 152.00396 143.18308 149.50856 148.55667 145.83008 152.77148 L 179.10938 152.77148 L 179.10938 137.15039 L 152.8418 137.15039 z "
       transform="matrix(0.26458333,0,0,0.26458333,24.10056,360.66116)"
       id="path1582-5" />
    <path
       sodipodi:nodetypes="sssss"
       inkscape:connector-curvature="0"
       id="path840"
       d="m -20.878613,399.14856 c -3e-6,14.23649 -14.807249,24.14323 -33.072912,24.14323 -18.26568,0 -33.07292,-9.90674 -33.07292,-24.14323 0,-14.2365 14.80724,-34.81994 33.07292,-34.81994 18.265668,0 33.072916,20.58344 33.072912,34.81994 z"
       style="opacity:1;fill:#acb33c;fill-opacity:1;fill-rule:nonzero;stroke:none;stroke-width:4;stroke-linecap:round;stroke-linejoin:round;stroke-miterlimit:4;stroke-dasharray:none;stroke-dashoffset:0;stroke-opacity:1;paint-order:stroke fill markers" />
    <path
       inkscape:connector-curvature="0"
       id="path842"
       d="m -61.484672,377.05814 v 12.01994 c -0.908216,-0.46463 -2.051971,-0.709 -3.40651,-0.709 h -5.904034 v 15.23317 h 2.497004 v -4.88548 h 3.40703 c 1.354573,0 2.498283,-0.25865 3.40651,-0.74723 v 15.6166 h 14.453381 v -2.497 h -12.183753 l -0.01654,-9.64023 c 1.319185,1.33305 3.126456,2.14244 5.179012,2.15231 v 10e-4 h 0.03772 16.90181 l 0.0052,-15.41145 H -46.5021 v -11.13266 h -3.011701 l -4.47983,5.35059 -4.528408,-5.35059 z m 2.243273,3.74552 4.422471,5.03277 h 1.629356 l 4.444172,-5.03277 0.01292,9.30331 c -1.344488,-1.37314 -3.197286,-2.2066 -5.282364,-2.2066 -2.067081,0 -3.895302,0.81947 -5.226555,2.17146 z m 5.226555,9.65729 c 2.94146,0 5.269444,2.3703 5.269444,5.26944 0,2.89915 -2.327984,5.3325 -5.269444,5.3325 -2.941471,0 -5.226555,-2.41218 -5.226555,-5.3325 0,-2.89914 2.285084,-5.26944 5.226555,-5.26944 z m 7.512719,0 h 6.867282 v 4.21783 h -6.867282 z m -21.796087,0.15089 h 3.301094 c 2.285455,0 3.576526,0.9315 3.576526,2.87838 0,2.01033 -1.291071,2.98379 -3.576526,2.98379 h -3.301094 z m 21.713405,6.33709 h 6.949964 v 4.13306 h -8.805148 c 0.973263,-1.11517 1.633506,-2.53691 1.855184,-4.13306 z"
       style="font-style:normal;font-variant:normal;font-weight:normal;font-stretch:normal;font-size:13.05398941px;line-height:1.25;font-family:Trueno;-inkscape-font-specification:Trueno;text-align:end;letter-spacing:0px;word-spacing:0px;text-anchor:end;fill:#ffffff;fill-opacity:1;stroke:none;stroke-width:0.26458347" />
  </g>
</svg>
