<?xml version="1.0" encoding="UTF-8" standalone="no"?>
<!-- Created with Inkscape (http://www.inkscape.org/) -->

<svg
   xmlns:dc="http://purl.org/dc/elements/1.1/"
   xmlns:cc="http://creativecommons.org/ns#"
   xmlns:rdf="http://www.w3.org/1999/02/22-rdf-syntax-ns#"
   xmlns:svg="http://www.w3.org/2000/svg"
   xmlns="http://www.w3.org/2000/svg"
   xmlns:sodipodi="http://sodipodi.sourceforge.net/DTD/sodipodi-0.dtd"
   xmlns:inkscape="http://www.inkscape.org/namespaces/inkscape"
   width="91.529305"
   height="91.721649"
   viewBox="0 0 24.217128 24.26802"
   version="1.1"
   id="svg1015"
   inkscape:version="0.92.4 5da689c313, 2019-01-14"
   sodipodi:docname="pomelo_favicon.svg"
   inkscape:export-filename="/home/jake/code/pomelo/img/favicon.png"
   inkscape:export-xdpi="25.172266"
   inkscape:export-ydpi="25.172266">
  <defs
     id="defs1009" />
  <sodipodi:namedview
     id="base"
     pagecolor="#ffffff"
     bordercolor="#666666"
     borderopacity="1.0"
     inkscape:pageopacity="0.0"
     inkscape:pageshadow="2"
     inkscape:zoom="5.6"
     inkscape:cx="72.220432"
     inkscape:cy="28.428233"
     inkscape:document-units="mm"
     inkscape:current-layer="layer1"
     showgrid="false"
     showguides="false"
     inkscape:snap-bbox="true"
     inkscape:bbox-paths="true"
     inkscape:bbox-nodes="true"
     inkscape:snap-bbox-edge-midpoints="true"
     inkscape:snap-bbox-midpoints="true"
     inkscape:object-paths="true"
     inkscape:object-nodes="true"
     inkscape:snap-smooth-nodes="true"
     inkscape:snap-intersection-paths="true"
     inkscape:guide-bbox="true"
     inkscape:snap-midpoints="true"
     inkscape:snap-object-midpoints="true"
     inkscape:snap-center="true"
     inkscape:snap-global="true"
     inkscape:pagecheckerboard="true"
     units="px"
     inkscape:lockguides="false">
    <sodipodi:guide
       position="-4.6024659,-66.632262"
       orientation="0,1"
       id="guide2876"
       inkscape:locked="false" />
    <sodipodi:guide
       position="-12.65453,-84.791302"
       orientation="0,1"
       inkscape:locked="false"
       id="guide2882" />
    <sodipodi:guide
       position="0.24056411,-71.253382"
       orientation="1,0"
       inkscape:locked="false"
       id="guide2884" />
    <sodipodi:guide
       position="-17.48451,-73.836012"
       orientation="1,0"
       inkscape:locked="false"
       id="guide2888" />
    <sodipodi:guide
       position="-4.6024659,-75.874482"
       orientation="0,1"
       id="guide2890"
       inkscape:locked="false" />
    <sodipodi:guide
       position="-4.5894159,-68.015992"
       orientation="0,1"
       id="guide2892"
       inkscape:locked="false" />
    <sodipodi:guide
       position="-4.5894159,-74.490772"
       orientation="0,1"
       id="guide2894"
       inkscape:locked="false" />
    <sodipodi:guide
       position="-4.6024659,-71.253382"
       orientation="1,0"
       id="guide2896"
       inkscape:locked="false" />
    <sodipodi:guide
       position="-4.6024669,-71.253382"
       orientation="0,1"
       id="guide2903"
       inkscape:locked="false" />
    <sodipodi:guide
       position="0.24056311,-86.135872"
       orientation="0,1"
       id="guide2905"
       inkscape:locked="false" />
    <sodipodi:guide
       position="-1.2998079,-78.328032"
       orientation="0,1"
       id="guide2907"
       inkscape:locked="false" />
    <sodipodi:guide
       position="0.24056311,-76.931262"
       orientation="0,1"
       id="guide2909"
       inkscape:locked="false" />
    <sodipodi:guide
       position="3.3640231,-82.438712"
       orientation="1,0"
       id="guide2917"
       inkscape:locked="false" />
    <sodipodi:guide
       position="10.730304,-3.5058032"
       orientation="0,1"
       id="guide879"
       inkscape:locked="false" />
    <sodipodi:guide
       position="18.221519,24.626165"
       orientation="0,1"
       id="guide904"
       inkscape:locked="false" />
    <sodipodi:guide
       position="10.709149,9.6356038"
       orientation="0,1"
       id="guide906"
       inkscape:locked="false" />
    <sodipodi:guide
       position="10.709149,-0.96637323"
       orientation="0,1"
       id="guide908"
       inkscape:locked="false" />
    <sodipodi:guide
       position="29.167829,11.905624"
       orientation="1,0"
       id="guide910"
       inkscape:locked="false" />
    <sodipodi:guide
       position="31.664902,11.905624"
       orientation="1,0"
       id="guide914"
       inkscape:locked="false" />
    <sodipodi:guide
       position="33.659506,-0.98538323"
       orientation="1,0"
       id="guide911"
       inkscape:locked="false" />
    <sodipodi:guide
       position="12.592793,14.789114"
       orientation="0,1"
       id="guide943"
       inkscape:locked="false" />
    <sodipodi:guide
       position="11.788638,4.3451668"
       orientation="0,1"
       id="guide947"
       inkscape:locked="false" />
    <sodipodi:guide
       position="19.279854,2.6030768"
       orientation="1,0"
       id="guide955"
       inkscape:locked="false" />
    <sodipodi:guide
       position="22.457801,40.076747"
       orientation="0,1"
       id="guide870"
       inkscape:locked="false" />
    <sodipodi:guide
       position="39.993188,22.528957"
       orientation="-0.70710678,0.70710678"
       id="guide874"
       inkscape:locked="false" />
    <sodipodi:guide
       position="29.549873,27.231537"
       orientation="-0.70710678,0.70710678"
       id="guide876"
       inkscape:locked="false" />
    <sodipodi:guide
       position="7.3216881,1.6232918"
       orientation="0.70710678,0.70710678"
       id="guide878"
       inkscape:locked="false" />
    <sodipodi:guide
       position="-0.6931899,6.0121778"
       orientation="0.70710678,0.70710678"
       id="guide891"
       inkscape:locked="false" />
    <sodipodi:guide
       position="35.34437,2.5344198"
       orientation="0.70710678,0.70710678"
       inkscape:locked="false"
       id="guide902" />
    <sodipodi:guide
       position="11.481211,23.345473"
       orientation="1,0"
       id="guide915"
       inkscape:locked="false" />
  </sodipodi:namedview>
  <metadata
     id="metadata1012">
    <rdf:RDF>
      <cc:Work
         rdf:about="">
        <dc:format>image/svg+xml</dc:format>
        <dc:type
           rdf:resource="http://purl.org/dc/dcmitype/StillImage" />
        <dc:title></dc:title>
      </cc:Work>
    </rdf:RDF>
  </metadata>
  <g
     inkscape:label="Layer 1"
     inkscape:groupmode="layer"
     id="layer1"
     transform="translate(-45.111422,-381.70833)">
    <rect
       style="opacity:1;vector-effect:none;fill:#ffffff;fill-opacity:1;fill-rule:nonzero;stroke:none;stroke-width:0.60000014;stroke-linecap:butt;stroke-linejoin:miter;stroke-miterlimit:4;stroke-dasharray:none;stroke-dashoffset:0;stroke-opacity:1;paint-order:markers stroke fill"
       id="rect931"
       width="24.187893"
       height="24.187893"
       x="45.126041"
       y="381.74841"
       ry="6.1471992" />
    <path
       style="opacity:1;fill:#171114;fill-opacity:1;fill-rule:nonzero;stroke:none;stroke-width:1.60000086;stroke-linecap:round;stroke-linejoin:round;stroke-miterlimit:4;stroke-dasharray:none;stroke-dashoffset:0;stroke-opacity:1;paint-order:stroke fill markers"
       d="m 61.318074,382.77741 -3.515408,3.5154 1.02305,1.02329 2.376435,-2.37644 1.901194,1.90119 -2.818217,2.81822 a 5.2516161,5.2515904 0 0 1 1.020694,1.02564 l 2.820573,-2.8208 1.86279,1.86302 -3.643348,3.64359 a 5.2516161,5.2515904 0 0 1 0.02356,0.47217 5.2516161,5.2515904 0 0 1 -0.543097,2.31918 l 6.435411,-6.43588 z"
       id="path863"
       inkscape:connector-curvature="0" />
    <path
       style="opacity:1;fill:#171114;fill-opacity:1;fill-rule:nonzero;stroke:none;stroke-width:1.60000086;stroke-linecap:round;stroke-linejoin:round;stroke-miterlimit:4;stroke-dasharray:none;stroke-dashoffset:0;stroke-opacity:1;paint-order:stroke fill markers"
       d="m 53.020581,382.94799 -1.012447,1.01244 -0.04029,4.68784 -4.731192,0.0836 -0.969094,0.96886 3.179653,3.13865 0.355547,0.35107 c 0.394073,-0.19081 0.885127,-0.35306 1.538344,-0.43777 l -2.719493,-2.7195 4.470835,-0.0337 0.25753,-0.25753 0.0024,-4.43972 3.321495,3.31065 a 5.2516161,5.2515904 0 0 1 0.444374,-0.0224 5.2516161,5.2515904 0 0 1 1.900488,0.35625 l -0.455684,-0.45592 -0.455919,-0.45592 -1.157116,-1.15687 4.83e-4,-4.8e-4 z"
       id="path861"
       inkscape:connector-curvature="0" />
    <path
       style="opacity:1;fill:#171114;fill-opacity:1;fill-rule:nonzero;stroke:none;stroke-width:1.60000086;stroke-linecap:round;stroke-linejoin:round;stroke-miterlimit:4;stroke-dasharray:none;stroke-dashoffset:0;stroke-opacity:1;paint-order:stroke fill markers"
       d="m 51.873597,393.72182 c -1.200463,0.0655 -1.672157,0.32934 -2.143645,0.67834 -0.05959,0.0491 -0.117488,0.10006 -0.172001,0.15457 l -0.818534,0.83597 -2.561159,2.56115 6.902405,6.95542 1.125543,-1.12554 -2.958408,-3.00529 1.484622,-1.4851 0.772825,-0.78909 c 0.152875,-0.1529 0.288144,-0.323 0.403613,-0.50633 a 5.2516161,5.2515904 0 0 1 -1.104574,-1.16089 c -0.04204,0.2534 -0.142371,0.48837 -0.310072,0.65619 l -0.783191,0.79992 -1.474021,1.4745 -1.885644,-1.83876 1.446218,-1.44622 0.83432,-0.85199 c 0.229278,-0.22913 0.566723,-0.35012 0.922677,-0.35012 0.197685,0 0.383138,0.0445 0.548752,0.12228 a 5.2516161,5.2515904 0 0 1 -0.23703,-1.55814 5.2516161,5.2515904 0 0 1 0.0076,-0.12087 z"
       id="path859"
       inkscape:connector-curvature="0" />
    <path
       style="opacity:1;fill:#171114;fill-opacity:1;fill-rule:nonzero;stroke:none;stroke-width:1.60000086;stroke-linecap:round;stroke-linejoin:round;stroke-miterlimit:4;stroke-dasharray:none;stroke-dashoffset:0;stroke-opacity:1;paint-order:stroke fill markers"
       d="m 65.650367,396.05537 -1.109756,1.10999 1.038364,1.03813 -4.3813,4.38178 -3.534258,-3.5206 a 5.2516161,5.2515904 0 0 1 -0.545218,0.0292 5.2516161,5.2515904 0 0 1 -1.711523,-0.29335 l 5.893256,5.93284 5.404587,-5.40435 1.109755,-1.10975 -1.125542,-1.12555 z"
       id="path943"
       inkscape:connector-curvature="0" />
    <path
       style="color:#000000;font-style:normal;font-variant:normal;font-weight:normal;font-stretch:normal;font-size:medium;line-height:normal;font-family:sans-serif;font-variant-ligatures:normal;font-variant-position:normal;font-variant-caps:normal;font-variant-numeric:normal;font-variant-alternates:normal;font-feature-settings:normal;text-indent:0;text-align:start;text-decoration:none;text-decoration-line:none;text-decoration-style:solid;text-decoration-color:#000000;letter-spacing:normal;word-spacing:normal;text-transform:none;writing-mode:lr-tb;direction:ltr;text-orientation:mixed;dominant-baseline:auto;baseline-shift:baseline;text-anchor:start;white-space:normal;shape-padding:0;clip-rule:nonzero;display:inline;overflow:visible;visibility:visible;opacity:1;isolation:auto;mix-blend-mode:normal;color-interpolation:sRGB;color-interpolation-filters:linearRGB;solid-color:#000000;solid-opacity:1;vector-effect:none;fill:#ffffff;fill-opacity:1;fill-rule:nonzero;stroke:none;stroke-width:1.99999952;stroke-linecap:butt;stroke-linejoin:miter;stroke-miterlimit:4;stroke-dasharray:none;stroke-dashoffset:0;stroke-opacity:1;paint-order:markers stroke fill;color-rendering:auto;image-rendering:auto;shape-rendering:auto;text-rendering:auto;enable-background:accumulate"
       d="m 56.876236,386.15609 c -1.455896,0.75727 -3.345902,0.71484 -4.479138,2.04151 -1.262973,1.02199 -1.965593,2.54095 -2.633647,3.98362 0.05288,1.48204 -0.369687,3.09641 0.439189,4.4509 0.389502,1.50853 1.973569,2.23246 2.607955,3.59404 -0.136089,0.81577 1.05989,-0.30655 1.317983,0.38909 1.879838,1.02031 4.272137,1.0122 6.118938,-0.0808 0.499383,-0.3824 1.389499,-0.46721 1.751451,-0.53081 0.229537,-1.57503 2.132084,-2.28918 2.260695,-3.91342 0.624693,-1.51377 0.197217,-3.16802 0.0423,-4.73023 -0.988185,-1.45999 -1.861274,-3.18286 -3.521368,-3.98477 -1.104276,-0.92528 -2.668588,-0.61764 -3.904367,-1.21914 z"
       id="path964"
       inkscape:connector-curvature="0" />
    <path
       style="opacity:1;vector-effect:none;fill:#171114;fill-opacity:1;fill-rule:nonzero;stroke:none;stroke-width:3.09999919;stroke-linecap:butt;stroke-linejoin:miter;stroke-miterlimit:4;stroke-dasharray:none;stroke-dashoffset:0;stroke-opacity:1;paint-order:markers stroke fill"
       d="m 57.118224,387.73873 c -3.383619,-9e-5 -6.12665,2.74279 -6.126762,6.12645 -7.5e-5,3.38366 2.743014,6.12682 6.126762,6.12675 3.383612,-1.1e-4 6.126495,-2.74322 6.126416,-6.12675 -1.11e-4,-3.38351 -2.742935,-6.12635 -6.126416,-6.12645 z m -0.126048,1.96689 1.150032,2.90589 3.125244,-0.0192 -2.408026,1.99172 0.982943,2.96658 -2.638294,-1.67461 -2.517559,1.85167 0.777263,-3.02695 -2.539028,-1.82215 3.119026,-0.19601 z"
       id="path862"
       inkscape:connector-curvature="0"
       sodipodi:nodetypes="cccccccccccccccc" />
  </g>
</svg>
