<?xml version="1.0" encoding="UTF-8" standalone="no"?>
<!-- Created with Inkscape (http://www.inkscape.org/) -->

<svg
   xmlns:dc="http://purl.org/dc/elements/1.1/"
   xmlns:cc="http://creativecommons.org/ns#"
   xmlns:rdf="http://www.w3.org/1999/02/22-rdf-syntax-ns#"
   xmlns:svg="http://www.w3.org/2000/svg"
   xmlns="http://www.w3.org/2000/svg"
   xmlns:sodipodi="http://sodipodi.sourceforge.net/DTD/sodipodi-0.dtd"
   xmlns:inkscape="http://www.inkscape.org/namespaces/inkscape"
   width="250"
   height="250"
   viewBox="0 0 66.145832 66.145834"
   version="1.1"
   id="svg1015"
   inkscape:version="0.92.4 5da689c313, 2019-01-14"
   sodipodi:docname="pomelo_logo.svg"
   inkscape:export-filename="/home/jake/code/pomelo/img/pomelo_logo.png"
   inkscape:export-xdpi="115.19999"
   inkscape:export-ydpi="115.19999">
  <defs
     id="defs1009" />
  <sodipodi:namedview
     id="base"
     pagecolor="#ffffff"
     bordercolor="#666666"
     borderopacity="1.0"
     inkscape:pageopacity="0.0"
     inkscape:pageshadow="2"
     inkscape:zoom="1.979899"
     inkscape:cx="136.79449"
     inkscape:cy="107.01186"
     inkscape:document-units="mm"
     inkscape:current-layer="layer1"
     showgrid="false"
     showguides="false"
     inkscape:snap-bbox="true"
     inkscape:bbox-paths="true"
     inkscape:bbox-nodes="true"
     inkscape:snap-bbox-edge-midpoints="true"
     inkscape:snap-bbox-midpoints="true"
     inkscape:object-paths="true"
     inkscape:object-nodes="true"
     inkscape:snap-smooth-nodes="true"
     inkscape:snap-intersection-paths="true"
     inkscape:guide-bbox="true"
     inkscape:snap-midpoints="true"
     inkscape:snap-object-midpoints="true"
     inkscape:snap-center="true"
     inkscape:snap-global="true"
     inkscape:pagecheckerboard="true"
     units="px"
     inkscape:lockguides="false">
    <sodipodi:guide
       position="16.408396,-45.801619"
       orientation="0,1"
       id="guide2876"
       inkscape:locked="false" />
    <sodipodi:guide
       position="8.3563319,-63.960659"
       orientation="0,1"
       inkscape:locked="false"
       id="guide2882" />
    <sodipodi:guide
       position="21.251426,-50.422739"
       orientation="1,0"
       inkscape:locked="false"
       id="guide2884" />
    <sodipodi:guide
       position="3.5263519,-53.005369"
       orientation="1,0"
       inkscape:locked="false"
       id="guide2888" />
    <sodipodi:guide
       position="16.408396,-55.043839"
       orientation="0,1"
       id="guide2890"
       inkscape:locked="false" />
    <sodipodi:guide
       position="16.421446,-47.185349"
       orientation="0,1"
       id="guide2892"
       inkscape:locked="false" />
    <sodipodi:guide
       position="16.421446,-53.660129"
       orientation="0,1"
       id="guide2894"
       inkscape:locked="false" />
    <sodipodi:guide
       position="16.408396,-50.422739"
       orientation="1,0"
       id="guide2896"
       inkscape:locked="false" />
    <sodipodi:guide
       position="16.408395,-50.422739"
       orientation="0,1"
       id="guide2903"
       inkscape:locked="false" />
    <sodipodi:guide
       position="21.251425,-65.305229"
       orientation="0,1"
       id="guide2905"
       inkscape:locked="false" />
    <sodipodi:guide
       position="19.711054,-57.497389"
       orientation="0,1"
       id="guide2907"
       inkscape:locked="false" />
    <sodipodi:guide
       position="21.251425,-56.100619"
       orientation="0,1"
       id="guide2909"
       inkscape:locked="false" />
    <sodipodi:guide
       position="24.374885,-61.608069"
       orientation="1,0"
       id="guide2917"
       inkscape:locked="false" />
    <sodipodi:guide
       position="31.741166,17.32484"
       orientation="0,1"
       id="guide879"
       inkscape:locked="false" />
    <sodipodi:guide
       position="39.232381,45.456808"
       orientation="0,1"
       id="guide904"
       inkscape:locked="false" />
    <sodipodi:guide
       position="31.720011,30.466247"
       orientation="0,1"
       id="guide906"
       inkscape:locked="false" />
    <sodipodi:guide
       position="31.720011,19.86427"
       orientation="0,1"
       id="guide908"
       inkscape:locked="false" />
    <sodipodi:guide
       position="50.178691,32.736267"
       orientation="1,0"
       id="guide910"
       inkscape:locked="false" />
    <sodipodi:guide
       position="52.675764,32.736267"
       orientation="1,0"
       id="guide914"
       inkscape:locked="false" />
    <sodipodi:guide
       position="54.670368,19.84526"
       orientation="1,0"
       id="guide911"
       inkscape:locked="false" />
    <sodipodi:guide
       position="33.603655,35.619757"
       orientation="0,1"
       id="guide943"
       inkscape:locked="false" />
    <sodipodi:guide
       position="32.7995,25.17581"
       orientation="0,1"
       id="guide947"
       inkscape:locked="false" />
    <sodipodi:guide
       position="40.290716,23.43372"
       orientation="1,0"
       id="guide955"
       inkscape:locked="false" />
    <sodipodi:guide
       position="43.468663,60.90739"
       orientation="0,1"
       id="guide870"
       inkscape:locked="false" />
    <sodipodi:guide
       position="61.00405,43.3596"
       orientation="-0.70710678,0.70710678"
       id="guide874"
       inkscape:locked="false" />
    <sodipodi:guide
       position="50.560735,48.06218"
       orientation="-0.70710678,0.70710678"
       id="guide876"
       inkscape:locked="false" />
    <sodipodi:guide
       position="28.33255,22.453935"
       orientation="0.70710678,0.70710678"
       id="guide878"
       inkscape:locked="false" />
    <sodipodi:guide
       position="20.317672,26.842821"
       orientation="0.70710678,0.70710678"
       id="guide891"
       inkscape:locked="false" />
    <sodipodi:guide
       position="56.355232,23.365063"
       orientation="0.70710678,0.70710678"
       inkscape:locked="false"
       id="guide902" />
    <sodipodi:guide
       position="32.492073,44.176116"
       orientation="1,0"
       id="guide915"
       inkscape:locked="false" />
  </sodipodi:namedview>
  <metadata
     id="metadata1012">
    <rdf:RDF>
      <cc:Work
         rdf:about="">
        <dc:format>image/svg+xml</dc:format>
        <dc:type
           rdf:resource="http://purl.org/dc/dcmitype/StillImage" />
        <dc:title></dc:title>
      </cc:Work>
    </rdf:RDF>
  </metadata>
  <g
     inkscape:label="Layer 1"
     inkscape:groupmode="layer"
     id="layer1"
     transform="translate(-24.10056,-360.66116)">
    <path
       sodipodi:nodetypes="sssss"
       inkscape:connector-curvature="0"
       id="path840"
       d="m -20.878613,399.14856 c -3e-6,14.23649 -14.807249,24.14323 -33.072912,24.14323 -18.26568,0 -33.07292,-9.90674 -33.07292,-24.14323 0,-14.2365 14.80724,-34.81994 33.07292,-34.81994 18.265668,0 33.072916,20.58344 33.072912,34.81994 z"
       style="opacity:1;fill:#acb33c;fill-opacity:1;fill-rule:nonzero;stroke:none;stroke-width:4;stroke-linecap:round;stroke-linejoin:round;stroke-miterlimit:4;stroke-dasharray:none;stroke-dashoffset:0;stroke-opacity:1;paint-order:stroke fill markers" />
    <path
       inkscape:connector-curvature="0"
       id="path842"
       d="m -61.484672,377.05814 v 12.01994 c -0.908216,-0.46463 -2.051971,-0.709 -3.40651,-0.709 h -5.904034 v 15.23317 h 2.497004 v -4.88548 h 3.40703 c 1.354573,0 2.498283,-0.25865 3.40651,-0.74723 v 15.6166 h 14.453381 v -2.497 h -12.183753 l -0.01654,-9.64023 c 1.319185,1.33305 3.126456,2.14244 5.179012,2.15231 v 10e-4 h 0.03772 16.90181 l 0.0052,-15.41145 H -46.5021 v -11.13266 h -3.011701 l -4.47983,5.35059 -4.528408,-5.35059 z m 2.243273,3.74552 4.422471,5.03277 h 1.629356 l 4.444172,-5.03277 0.01292,9.30331 c -1.344488,-1.37314 -3.197286,-2.2066 -5.282364,-2.2066 -2.067081,0 -3.895302,0.81947 -5.226555,2.17146 z m 5.226555,9.65729 c 2.94146,0 5.269444,2.3703 5.269444,5.26944 0,2.89915 -2.327984,5.3325 -5.269444,5.3325 -2.941471,0 -5.226555,-2.41218 -5.226555,-5.3325 0,-2.89914 2.285084,-5.26944 5.226555,-5.26944 z m 7.512719,0 h 6.867282 v 4.21783 h -6.867282 z m -21.796087,0.15089 h 3.301094 c 2.285455,0 3.576526,0.9315 3.576526,2.87838 0,2.01033 -1.291071,2.98379 -3.576526,2.98379 h -3.301094 z m 21.713405,6.33709 h 6.949964 v 4.13306 h -8.805148 c 0.973263,-1.11517 1.633506,-2.53691 1.855184,-4.13306 z"
       style="font-style:normal;font-variant:normal;font-weight:normal;font-stretch:normal;font-size:13.05398941px;line-height:1.25;font-family:Trueno;-inkscape-font-specification:Trueno;text-align:end;letter-spacing:0px;word-spacing:0px;text-anchor:end;fill:#ffffff;fill-opacity:1;stroke:none;stroke-width:0.26458347" />
    <g
       transform="matrix(1.6096664,0,0,1.6096664,-98.413427,-243.39767)"
       style="fill:#747474;fill-opacity:1;stroke-width:0.62124711"
       id="g847">
      <path
         style="opacity:1;fill:#747474;fill-opacity:1;fill-rule:nonzero;stroke:none;stroke-width:0.99399531;stroke-linecap:round;stroke-linejoin:round;stroke-miterlimit:4;stroke-dasharray:none;stroke-dashoffset:0;stroke-opacity:1;paint-order:stroke fill markers"
         d="m 40.054498,389.3861 7.00267,7.00267 c -0.970749,0.31367 -1.9523,0.94963 -2.910104,1.90743 l -4.174782,4.17478 10.771484,10.77149 1.76565,-1.76565 -3.454564,-3.45456 2.409132,-2.40914 c 0.957828,-0.95783 1.583651,-1.94945 1.880387,-2.93714 l 10.294262,10.29426 10.220084,-10.22009 -1.765649,-1.76564 -8.615215,8.61521 -6.080016,-6.05663 c 1.875414,0.01 3.725681,-0.6958 5.184038,-2.14019 l 7.48e-4,7.5e-4 0.02668,-0.0267 11.951383,-11.95138 -10.893528,-10.90157 -6.642745,6.64274 -6.375283,-6.37528 -1.588374,1.58837 -1.048041,6.36984 -6.437595,1.1158 z m 3.693488,0.52102 5.964929,-1.03774 0.403776,-0.40377 1.053087,-5.98028 5.632075,5.61382 c -1.921654,-0.0203 -3.821114,0.70053 -5.295487,2.1749 -1.461647,1.46165 -2.174953,3.33384 -2.160291,5.23117 z m 9.568981,2.17752 c 2.079924,-2.07993 5.402118,-2.05 7.452119,0 2.05001,2.05001 2.124506,5.41678 0.04458,7.4967 -2.079936,2.07994 -5.401396,1.99007 -7.466374,-0.0749 -2.050002,-2.05 -2.110263,-5.34185 -0.03033,-7.42179 z m 5.312295,-5.3123 4.855901,-4.8559 2.982455,2.98246 -4.855901,4.8559 z M 43.3238,402.2912 l 2.334223,-2.33422 c 1.616061,-1.61606 3.187656,-1.87032 4.564305,-0.49367 1.421518,1.42152 1.196939,3.02279 -0.419121,4.63885 l -2.334224,2.33423 z m 19.834687,-10.8727 4.914367,-4.91437 2.922529,2.92253 -6.22618,6.22618 c -0.100341,-1.47674 -0.638818,-2.94894 -1.610716,-4.23434 z"
         id="path843"
         inkscape:connector-curvature="0"
         sodipodi:nodetypes="ccsccccsccccccccccccccccccccccsccsssssccccccsssccccccc" />
      <ellipse
         style="opacity:1;fill:#747474;fill-opacity:1;fill-rule:nonzero;stroke:none;stroke-width:0.99399531;stroke-linecap:round;stroke-linejoin:round;stroke-miterlimit:4;stroke-dasharray:none;stroke-dashoffset:0;stroke-opacity:1;paint-order:stroke fill markers"
         id="ellipse845"
         cx="57.077496"
         cy="395.88324"
         rx="3.0124116"
         ry="3.0123966" />
    </g>
    <path
       sodipodi:nodetypes="ccccccccccccccccccccccccccccccccccccccccsccccccccccccscscssccccccs"
       inkscape:connector-curvature="0"
       id="path910"
       d="m 188.18879,368.83947 -9.56738,9.56789 -9.18239,-9.18238 -2.28772,2.28771 -0.0909,10.59265 -10.69083,0.18912 -2.19005,2.18953 7.18509,7.09208 2.05724,2.03037 -0.0134,0.0134 0.43512,0.43511 c 0.005,0.005 0.0102,0.009 0.015,0.014 -0.85208,0.29783 -1.62418,0.7639 -2.24379,1.38337 l -1.8495,1.88878 -5.78725,5.78724 15.59699,15.71687 2.54351,-2.54299 -6.68538,-6.79132 3.35483,-3.35535 1.74667,-1.78336 c 0.61917,-0.61931 1.11626,-1.35993 1.44229,-2.18332 l 0.3514,0.35139 0.006,-0.007 15.81351,15.91944 14.72004,-14.72003 -2.54351,-2.54351 -12.40804,12.40906 -8.75709,-8.7235 c 2.70117,0.0144 5.36625,-1.00214 7.46673,-3.0825 l 5.3e-4,0.001 0.0388,-0.0382 17.21395,-17.21445 z m -0.262,4.88601 4.29587,4.29586 -6.99441,6.99441 -4.29535,-4.29587 z m -17.73794,0.81959 8.11217,8.08581 c -2.76778,-0.0292 -5.41075,1.00856 -7.5343,3.13211 -2.10522,2.10522 -3.22571,4.8022 -3.20459,7.53494 l -8.06308,-8.06308 10.1029,-0.0759 0.58187,-0.58188 z m 24.34581,5.78827 4.20905,4.20957 -8.96742,8.96792 c -0.14452,-2.12695 -0.91993,-4.248 -2.31976,-6.09936 z m -15.87036,5.8074 c 1.93979,0.005 3.87426,0.75404 5.35058,2.23036 2.95265,2.95264 3.05982,7.80206 0.0641,10.79779 -2.99575,2.99575 -7.77966,2.86618 -10.75387,-0.10801 -2.95263,-2.95263 -3.03915,-7.69403 -0.0434,-10.68978 1.49787,-1.49787 3.44283,-2.23575 5.38262,-2.23036 z m -12.53774,10.94714 c 1.60921,0 2.87683,1.26763 2.87683,2.87682 0,0.80433 -0.23567,1.60482 -0.75345,2.12287 l -1.76991,1.80764 -3.33107,3.33158 -4.26072,-4.15478 3.26802,-3.26802 1.88515,-1.92495 c 0.51805,-0.51778 1.28081,-0.79116 2.08515,-0.79116 z"
       style="opacity:1;fill:#747474;fill-opacity:1;fill-rule:nonzero;stroke:none;stroke-width:1.60000098;stroke-linecap:round;stroke-linejoin:round;stroke-miterlimit:4;stroke-dasharray:none;stroke-dashoffset:0;stroke-opacity:1;paint-order:stroke fill markers" />
    <path
       id="path912"
       d="m 178.69789,388.40107 a 5.4412842,5.4412583 0 0 0 -5.44153,5.44153 5.4412842,5.4412583 0 0 0 5.44153,5.44101 5.4412842,5.4412583 0 0 0 5.44101,-5.44101 5.4412842,5.4412583 0 0 0 -5.44101,-5.44153 z m 0,2.72076 a 2.7206421,2.7206292 0 0 1 2.72077,2.72077 2.7206421,2.7206292 0 0 1 -2.72077,2.72025 2.7206421,2.7206292 0 0 1 -2.72076,-2.72025 2.7206421,2.7206292 0 0 1 2.72076,-2.72077 z"
       style="opacity:1;fill:#747474;fill-opacity:1;fill-rule:nonzero;stroke:none;stroke-width:1.60000086;stroke-linecap:round;stroke-linejoin:round;stroke-miterlimit:4;stroke-dasharray:none;stroke-dashoffset:0;stroke-opacity:1;paint-order:stroke fill markers"
       inkscape:connector-curvature="0" />
    <path
       style="opacity:1;fill:#c32fa3;fill-opacity:1;fill-rule:nonzero;stroke:none;stroke-width:6.04724789;stroke-linecap:round;stroke-linejoin:round;stroke-miterlimit:4;stroke-dasharray:none;stroke-dashoffset:0;stroke-opacity:1;paint-order:stroke fill markers"
       d="m 159.14648,33.6875 -29.14062,29.140625 8.48047,8.482422 19.69922,-19.699219 15.75976,15.759766 -23.36133,23.361328 a 43.53275,43.532538 0 0 1 8.46094,8.501953 l 23.38086,-23.382813 15.44141,15.44336 -30.20117,30.203128 a 43.53275,43.532538 0 0 1 0.19531,3.91406 43.53275,43.532538 0 0 1 -4.50195,19.22461 l 53.3457,-53.349611 z"
       transform="matrix(0.26458333,0,0,0.26458333,24.10056,360.66116)"
       id="path863" />
    <path
       style="opacity:1;fill:#7364b5;fill-opacity:1;fill-rule:nonzero;stroke:none;stroke-width:6.04724789;stroke-linecap:round;stroke-linejoin:round;stroke-miterlimit:4;stroke-dasharray:none;stroke-dashoffset:0;stroke-opacity:1;paint-order:stroke fill markers"
       d="m 90.365234,35.101562 -8.392578,8.392579 -0.333984,38.859375 -39.21875,0.693359 -8.033203,8.03125 26.357422,26.017575 2.947265,2.91016 c 3.266635,-1.58173 7.337175,-2.92667 12.751953,-3.62891 l -22.542968,-22.542966 37.060547,-0.279296 2.134765,-2.134766 0.01953,-36.802734 27.533206,27.443359 a 43.53275,43.532538 0 0 1 3.68359,-0.185547 43.53275,43.532538 0 0 1 15.75391,2.953125 l -3.77735,-3.779297 -3.77929,-3.779297 -9.5918,-9.589843 0.004,-0.0039 z"
       transform="matrix(0.26458333,0,0,0.26458333,24.10056,360.66116)"
       id="path861" />
    <path
       style="opacity:1;fill:#2299c6;fill-opacity:1;fill-rule:nonzero;stroke:none;stroke-width:6.04724789;stroke-linecap:round;stroke-linejoin:round;stroke-miterlimit:4;stroke-dasharray:none;stroke-dashoffset:0;stroke-opacity:1;paint-order:stroke fill markers"
       d="m 80.857422,124.41016 c -9.951118,0.54304 -13.861171,2.73004 -17.769531,5.62304 -0.493985,0.40683 -0.973901,0.82941 -1.425782,1.28125 l -6.785156,6.92969 -21.230469,21.23047 57.216797,57.65625 9.330079,-9.33008 -24.523438,-24.91211 12.30664,-12.31055 6.40625,-6.54101 c 1.267238,-1.26754 2.388538,-2.67748 3.345704,-4.19727 a 43.53275,43.532538 0 0 1 -9.15625,-9.62304 c -0.348473,2.10051 -1.180176,4.04836 -2.570313,5.43945 l -6.492187,6.63086 -12.21875,12.22266 -15.63086,-15.24219 11.988282,-11.98828 6.916015,-7.0625 c 1.900573,-1.89929 4.697798,-2.90235 7.648438,-2.90235 1.638689,0 3.17599,0.36877 4.548828,1.01367 a 43.53275,43.532538 0 0 1 -1.964844,-12.91601 43.53275,43.532538 0 0 1 0.0625,-1.00195 z"
       transform="matrix(0.26458333,0,0,0.26458333,24.10056,360.66116)"
       id="path859" />
    <path
       style="opacity:1;fill:#cc7362;fill-opacity:1;fill-rule:nonzero;stroke:none;stroke-width:6.04724789;stroke-linecap:round;stroke-linejoin:round;stroke-miterlimit:4;stroke-dasharray:none;stroke-dashoffset:0;stroke-opacity:1;paint-order:stroke fill markers"
       d="m 195.05859,143.75391 -9.19921,9.20117 8.60742,8.60547 -36.31836,36.32226 -29.29688,-29.18359 a 43.53275,43.532538 0 0 1 -4.51953,0.24219 43.53275,43.532538 0 0 1 -14.1875,-2.43164 l 48.85156,49.17968 44.80079,-44.79883 9.19921,-9.19921 -9.33007,-9.33008 z"
       transform="matrix(0.26458333,0,0,0.26458333,24.10056,360.66116)"
       id="path943" />
    <path
       style="opacity:1;vector-effect:none;fill:#d8b71a;fill-opacity:1;fill-rule:nonzero;stroke:none;stroke-width:8.69291115;stroke-linecap:butt;stroke-linejoin:miter;stroke-miterlimit:4;stroke-dasharray:none;stroke-dashoffset:0;stroke-opacity:1;paint-order:markers stroke fill"
       d="m 124.30477,86.95452 c -21.23896,-4.9e-4 -38.456992,17.21659 -38.457672,38.45556 -4.85e-4,21.23978 17.217892,38.45815 38.457672,38.45766 21.23896,-6.8e-4 38.45604,-17.21871 38.45555,-38.45766 -6.8e-4,-21.23814 -17.21741,-38.454876 -38.45555,-38.45556 z m -0.7911,12.346261 7.21875,18.240239 19.61719,-0.11524 -15.11523,12.50195 6.16992,18.6211 -16.56055,-10.51172 -15.80273,11.62305 4.8789,-19 -15.937498,-11.4375 19.578128,-1.23047 z"
       transform="matrix(0.26458333,0,0,0.26458333,24.10056,360.66116)"
       id="path862"
       inkscape:connector-curvature="0"
       sodipodi:nodetypes="cccccccccccccccc" />
    <path
       sodipodi:nodetypes="ccccccccccccccccccccccccccccccccccccccccsccccccccccccscscssccccccs"
       inkscape:connector-curvature="0"
       id="path864"
       d="m 66.480401,442.92285 -9.567375,9.56789 -9.182384,-9.18238 -2.287716,2.28771 -0.09094,10.59265 -10.690831,0.18912 -2.190047,2.18953 7.185092,7.09208 2.057238,2.03036 -0.01343,0.0134 0.435115,0.43512 c 0.0048,0.005 0.01017,0.009 0.01499,0.0139 -0.852076,0.29784 -1.624173,0.76391 -2.243791,1.38338 l -1.849499,1.88877 -5.787244,5.78725 15.596981,15.71687 2.543514,-2.543 -6.68538,-6.79131 3.354834,-3.35535 1.746663,-1.78336 c 0.619169,-0.61931 1.116264,-1.35993 1.44229,-2.18333 l 0.3514,0.3514 0.0062,-0.007 15.813502,15.91944 14.720033,-14.72003 -2.543513,-2.54351 -12.40803,12.40906 -8.757086,-8.7235 c 2.701171,0.0144 5.366244,-1.00214 7.466726,-3.0825 l 5.3e-4,10e-4 0.03876,-0.0382 17.213937,-17.21446 z m -0.261998,4.88601 4.295862,4.29586 -6.994406,6.9944 -4.295346,-4.29586 z m -17.737936,0.81958 8.112167,8.08581 c -2.767772,-0.0292 -5.41074,1.00856 -7.534289,3.13211 -2.10522,2.10522 -3.225708,4.8022 -3.204591,7.53494 l -8.063074,-8.06307 10.102889,-0.0759 0.581876,-0.58188 z m 24.345801,5.78828 4.209045,4.20956 -8.967412,8.96793 c -0.14452,-2.12696 -0.919924,-4.248 -2.319755,-6.09937 z m -15.870351,5.8074 c 1.93979,0.005 3.874262,0.75403 5.350579,2.23035 2.952642,2.95264 3.059814,7.80206 0.06408,10.79779 -2.995747,2.99575 -7.779662,2.86619 -10.753865,-0.108 -2.952632,-2.95263 -3.039154,-7.69404 -0.04341,-10.68979 1.497867,-1.49787 3.442827,-2.23574 5.382616,-2.23035 z m -12.537734,10.94713 c 1.609212,0 2.876827,1.26764 2.876826,2.87683 0,0.80433 -0.235661,1.60482 -0.753442,2.12287 l -1.769918,1.80764 -3.331062,3.33158 -4.260722,-4.15479 3.268017,-3.26801 1.885157,-1.92495 c 0.518048,-0.51778 1.280804,-0.79117 2.085144,-0.79117 z"
       style="opacity:1;fill:#747474;fill-opacity:1;fill-rule:nonzero;stroke:none;stroke-width:1.60000098;stroke-linecap:round;stroke-linejoin:round;stroke-miterlimit:4;stroke-dasharray:none;stroke-dashoffset:0;stroke-opacity:1;paint-order:stroke fill markers" />
    <path
       inkscape:transform-center-y="-0.6971882"
       inkscape:transform-center-x="0.086480936"
       d="m 56.777681,459.84243 2.140309,5.40705 5.815151,-0.0341 -4.481021,3.70642 1.829405,5.52001 -4.909732,-3.11636 -4.684516,3.44564 1.446639,-5.63244 -4.724595,-3.39047 5.803804,-0.36469 z"
       inkscape:randomized="0"
       inkscape:rounded="0"
       inkscape:flatsided="false"
       sodipodi:arg2="-0.97678553"
       sodipodi:arg1="-1.6051041"
       sodipodi:r2="3.3236327"
       sodipodi:r1="8.1661606"
       sodipodi:cy="468.00379"
       sodipodi:cx="57.057789"
       sodipodi:sides="5"
       id="path866"
       style="opacity:1;vector-effect:none;fill:#747474;fill-opacity:1;fill-rule:nonzero;stroke:none;stroke-width:3.40000081;stroke-linecap:butt;stroke-linejoin:miter;stroke-miterlimit:4;stroke-dasharray:none;stroke-dashoffset:0;stroke-opacity:0.65068497;paint-order:markers stroke fill"
       sodipodi:type="star" />
    <path
       id="path853"
       d="m 66.208066,300.7826 -7.710123,7.71013 2.243791,2.24431 5.212086,-5.21209 4.169769,4.16977 -6.181018,6.18102 a 11.51804,11.517984 0 0 1 2.238624,2.24947 l 6.186185,-6.1867 4.08554,4.08606 -7.990726,7.99124 a 11.51804,11.517984 0 0 1 0.05168,1.0356 11.51804,11.517984 0 0 1 -1.191141,5.08651 L 81.437116,316.0225 Z m -18.198371,0.37414 -2.220537,2.22054 -0.08837,10.28154 -10.376628,0.18345 -2.125451,2.12494 6.973734,6.88381 0.779797,0.76998 c 0.864297,-0.4185 1.941294,-0.77434 3.373954,-0.96015 l -5.964493,-5.96449 9.805603,-0.0739 0.564823,-0.56482 0.0052,-9.73739 7.284827,7.26106 a 11.51804,11.517984 0 0 1 0.974617,-0.0491 11.51804,11.517984 0 0 1 4.168221,0.78135 l -0.999423,-0.99994 -0.999937,-0.99994 -2.537831,-2.53731 0.001,-10e-4 z m -2.515609,23.62957 c -2.6329,0.14368 -3.667435,0.72232 -4.701522,1.48776 -0.1307,0.10764 -0.257678,0.21945 -0.377238,0.339 l -1.795239,1.83348 -5.617228,5.61723 15.13861,15.25488 2.468584,-2.46858 -6.488493,-6.59133 3.256132,-3.25717 1.694987,-1.73064 c 0.33529,-0.33537 0.631967,-0.70842 0.885217,-1.11053 a 11.51804,11.517984 0 0 1 -2.422591,-2.5461 c -0.0922,0.55576 -0.312255,1.07113 -0.680062,1.43919 l -1.717724,1.75442 -3.232878,3.23391 -4.135665,-4.03283 3.1719,-3.1719 1.829862,-1.86862 c 0.50286,-0.50252 1.242959,-0.76791 2.023649,-0.76791 0.43357,0 0.840314,0.0976 1.203544,0.2682 a 11.51804,11.517984 0 0 1 -0.519865,-3.41736 11.51804,11.517984 0 0 1 0.01654,-0.2651 z m 30.215725,5.11803 -2.433957,2.43448 2.27738,2.27686 -9.609233,9.61027 -7.751466,-7.7215 a 11.51804,11.517984 0 0 1 -1.195792,0.0641 11.51804,11.517984 0 0 1 -3.753776,-0.64337 l 12.925308,13.01213 11.853542,-11.85303 2.433958,-2.43395 -2.468581,-2.46859 z"
       style="opacity:1;fill:#747474;fill-opacity:1;fill-rule:nonzero;stroke:none;stroke-width:1.60000098;stroke-linecap:round;stroke-linejoin:round;stroke-miterlimit:4;stroke-dasharray:none;stroke-dashoffset:0;stroke-opacity:1;paint-order:stroke fill markers"
       inkscape:connector-curvature="0" />
    <path
       sodipodi:nodetypes="cccccccccccccccc"
       inkscape:connector-curvature="0"
       id="path855"
       d="m 56.98953,314.87617 c -5.619475,-1.3e-4 -10.175079,4.55522 -10.175259,10.1747 -1.28e-4,5.61969 4.555567,10.17539 10.175259,10.17526 5.619475,-1.8e-4 10.174827,-4.55579 10.174697,-10.17526 -1.79e-4,-5.61926 -4.555439,-10.17452 -10.174697,-10.1747 z m -0.209312,3.26661 1.909961,4.82607 5.190381,-0.0305 -3.999237,3.3078 1.632458,4.92684 -4.381646,-2.78123 -4.181139,3.07527 1.290876,-5.02709 -4.216797,-3.02617 5.180047,-0.32556 z"
       style="opacity:1;vector-effect:none;fill:#747474;fill-opacity:1;fill-rule:nonzero;stroke:none;stroke-width:2.29999948;stroke-linecap:butt;stroke-linejoin:miter;stroke-miterlimit:4;stroke-dasharray:none;stroke-dashoffset:0;stroke-opacity:1;paint-order:markers stroke fill" />
  </g>
</svg>
