<?xml version="1.0" encoding="UTF-8" standalone="no"?>
<!-- Created with Inkscape (http://www.inkscape.org/) -->

<svg
   xmlns:dc="http://purl.org/dc/elements/1.1/"
   xmlns:cc="http://creativecommons.org/ns#"
   xmlns:rdf="http://www.w3.org/1999/02/22-rdf-syntax-ns#"
   xmlns:svg="http://www.w3.org/2000/svg"
   xmlns="http://www.w3.org/2000/svg"
   xmlns:sodipodi="http://sodipodi.sourceforge.net/DTD/sodipodi-0.dtd"
   xmlns:inkscape="http://www.inkscape.org/namespaces/inkscape"
   width="250"
   height="250"
   viewBox="0 0 66.145832 66.145834"
   version="1.1"
   id="svg1015"
   inkscape:version="0.92.4 5da689c313, 2019-01-14"
   sodipodi:docname="pomelo.svg"
   inkscape:export-filename="/home/jake/code/pomelo/img/pomelo.png"
   inkscape:export-xdpi="115.19999"
   inkscape:export-ydpi="115.19999">
  <defs
     id="defs1009" />
  <sodipodi:namedview
     id="base"
     pagecolor="#ffffff"
     bordercolor="#666666"
     borderopacity="1.0"
     inkscape:pageopacity="0.0"
     inkscape:pageshadow="2"
     inkscape:zoom="0.7"
     inkscape:cx="51.635297"
     inkscape:cy="206.77611"
     inkscape:document-units="mm"
     inkscape:current-layer="layer1"
     showgrid="false"
     showguides="false"
     inkscape:snap-bbox="true"
     inkscape:bbox-paths="true"
     inkscape:bbox-nodes="true"
     inkscape:snap-bbox-edge-midpoints="true"
     inkscape:snap-bbox-midpoints="true"
     inkscape:object-paths="true"
     inkscape:object-nodes="true"
     inkscape:snap-smooth-nodes="true"
     inkscape:snap-intersection-paths="true"
     inkscape:guide-bbox="true"
     inkscape:snap-midpoints="true"
     inkscape:snap-object-midpoints="true"
     inkscape:snap-center="true"
     inkscape:snap-global="true"
     inkscape:pagecheckerboard="true"
     units="px">
    <sodipodi:guide
       position="16.408396,-45.801619"
       orientation="0,1"
       id="guide2876"
       inkscape:locked="false" />
    <sodipodi:guide
       position="8.3563319,-63.960659"
       orientation="0,1"
       inkscape:locked="false"
       id="guide2882" />
    <sodipodi:guide
       position="21.251426,-50.422739"
       orientation="1,0"
       inkscape:locked="false"
       id="guide2884" />
    <sodipodi:guide
       position="3.5263519,-53.005369"
       orientation="1,0"
       inkscape:locked="false"
       id="guide2888" />
    <sodipodi:guide
       position="16.408396,-55.043839"
       orientation="0,1"
       id="guide2890"
       inkscape:locked="false" />
    <sodipodi:guide
       position="16.421446,-47.185349"
       orientation="0,1"
       id="guide2892"
       inkscape:locked="false" />
    <sodipodi:guide
       position="16.421446,-53.660129"
       orientation="0,1"
       id="guide2894"
       inkscape:locked="false" />
    <sodipodi:guide
       position="16.408396,-50.422739"
       orientation="1,0"
       id="guide2896"
       inkscape:locked="false" />
    <sodipodi:guide
       position="16.408395,-50.422739"
       orientation="0,1"
       id="guide2903"
       inkscape:locked="false" />
    <sodipodi:guide
       position="21.251425,-65.305229"
       orientation="0,1"
       id="guide2905"
       inkscape:locked="false" />
    <sodipodi:guide
       position="19.711054,-57.497389"
       orientation="0,1"
       id="guide2907"
       inkscape:locked="false" />
    <sodipodi:guide
       position="21.251425,-56.100619"
       orientation="0,1"
       id="guide2909"
       inkscape:locked="false" />
    <sodipodi:guide
       position="24.374885,-61.608069"
       orientation="1,0"
       id="guide2917"
       inkscape:locked="false" />
    <sodipodi:guide
       position="31.741166,17.32484"
       orientation="0,1"
       id="guide879"
       inkscape:locked="false" />
    <sodipodi:guide
       position="39.232381,45.456808"
       orientation="0,1"
       id="guide904"
       inkscape:locked="false" />
    <sodipodi:guide
       position="31.720011,30.466247"
       orientation="0,1"
       id="guide906"
       inkscape:locked="false" />
    <sodipodi:guide
       position="31.720011,19.86427"
       orientation="0,1"
       id="guide908"
       inkscape:locked="false" />
    <sodipodi:guide
       position="50.178691,32.736267"
       orientation="1,0"
       id="guide910"
       inkscape:locked="false" />
    <sodipodi:guide
       position="52.675764,32.736267"
       orientation="1,0"
       id="guide914"
       inkscape:locked="false" />
    <sodipodi:guide
       position="54.670368,19.84526"
       orientation="1,0"
       id="guide911"
       inkscape:locked="false" />
    <sodipodi:guide
       position="33.603655,35.619757"
       orientation="0,1"
       id="guide943"
       inkscape:locked="false" />
    <sodipodi:guide
       position="32.7995,25.17581"
       orientation="0,1"
       id="guide947"
       inkscape:locked="false" />
    <sodipodi:guide
       position="40.290716,23.43372"
       orientation="1,0"
       id="guide955"
       inkscape:locked="false" />
  </sodipodi:namedview>
  <metadata
     id="metadata1012">
    <rdf:RDF>
      <cc:Work
         rdf:about="">
        <dc:format>image/svg+xml</dc:format>
        <dc:type
           rdf:resource="http://purl.org/dc/dcmitype/StillImage" />
        <dc:title />
      </cc:Work>
    </rdf:RDF>
  </metadata>
  <g
     inkscape:label="Layer 1"
     inkscape:groupmode="layer"
     id="layer1"
     transform="translate(-24.10056,-360.66116)">
    <path
       sodipodi:nodetypes="sssss"
       inkscape:connector-curvature="0"
       id="path840"
       d="m -20.878613,399.14856 c -3e-6,14.23649 -14.807249,24.14323 -33.072912,24.14323 -18.26568,0 -33.07292,-9.90674 -33.07292,-24.14323 0,-14.2365 14.80724,-34.81994 33.07292,-34.81994 18.265668,0 33.072916,20.58344 33.072912,34.81994 z"
       style="opacity:1;fill:#acb33c;fill-opacity:1;fill-rule:nonzero;stroke:none;stroke-width:4;stroke-linecap:round;stroke-linejoin:round;stroke-miterlimit:4;stroke-dasharray:none;stroke-dashoffset:0;stroke-opacity:1;paint-order:stroke fill markers" />
    <path
       inkscape:connector-curvature="0"
       id="path842"
       d="m -61.484672,377.05814 v 12.01994 c -0.908216,-0.46463 -2.051971,-0.709 -3.40651,-0.709 h -5.904034 v 15.23317 h 2.497004 v -4.88548 h 3.40703 c 1.354573,0 2.498283,-0.25865 3.40651,-0.74723 v 15.6166 h 14.453381 v -2.497 h -12.183753 l -0.01654,-9.64023 c 1.319185,1.33305 3.126456,2.14244 5.179012,2.15231 v 10e-4 h 0.03772 16.90181 l 0.0052,-15.41145 H -46.5021 v -11.13266 h -3.011701 l -4.47983,5.35059 -4.528408,-5.35059 z m 2.243273,3.74552 4.422471,5.03277 h 1.629356 l 4.444172,-5.03277 0.01292,9.30331 c -1.344488,-1.37314 -3.197286,-2.2066 -5.282364,-2.2066 -2.067081,0 -3.895302,0.81947 -5.226555,2.17146 z m 5.226555,9.65729 c 2.94146,0 5.269444,2.3703 5.269444,5.26944 0,2.89915 -2.327984,5.3325 -5.269444,5.3325 -2.941471,0 -5.226555,-2.41218 -5.226555,-5.3325 0,-2.89914 2.285084,-5.26944 5.226555,-5.26944 z m 7.512719,0 h 6.867282 v 4.21783 h -6.867282 z m -21.796087,0.15089 h 3.301094 c 2.285455,0 3.576526,0.9315 3.576526,2.87838 0,2.01033 -1.291071,2.98379 -3.576526,2.98379 h -3.301094 z m 21.713405,6.33709 h 6.949964 v 4.13306 h -8.805148 c 0.973263,-1.11517 1.633506,-2.53691 1.855184,-4.13306 z"
       style="font-style:normal;font-variant:normal;font-weight:normal;font-stretch:normal;font-size:13.05398941px;line-height:1.25;font-family:Trueno;-inkscape-font-specification:Trueno;text-align:end;letter-spacing:0px;word-spacing:0px;text-anchor:end;fill:#ffffff;fill-opacity:1;stroke:none;stroke-width:0.26458347" />
    <g
       id="g853"
       style="stroke-width:0.62124711;fill:#747474;fill-opacity:1"
       transform="matrix(1.6096664,0,0,1.6096664,-34.913423,-243.39767)">
      <path
         sodipodi:nodetypes="ccsccccsccccccccccccccccccccccsccsssssccccccsssccccccc"
         inkscape:connector-curvature="0"
         id="path838"
         d="m 40.054498,389.3861 7.00267,7.00267 c -0.970749,0.31367 -1.9523,0.94963 -2.910104,1.90743 l -4.174782,4.17478 10.771484,10.77149 1.76565,-1.76565 -3.454564,-3.45456 2.409132,-2.40914 c 0.957828,-0.95783 1.583651,-1.94945 1.880387,-2.93714 l 10.294262,10.29426 10.220084,-10.22009 -1.765649,-1.76564 -8.615215,8.61521 -6.080016,-6.05663 c 1.875414,0.01 3.725681,-0.6958 5.184038,-2.14019 l 7.48e-4,7.5e-4 0.02668,-0.0267 11.951383,-11.95138 -10.893528,-10.90157 -6.642745,6.64274 -6.375283,-6.37528 -1.588374,1.58837 -1.048041,6.36984 -6.437595,1.1158 z m 3.693488,0.52102 5.964929,-1.03774 0.403776,-0.40377 1.053087,-5.98028 5.632075,5.61382 c -1.921654,-0.0203 -3.821114,0.70053 -5.295487,2.1749 -1.461647,1.46165 -2.174953,3.33384 -2.160291,5.23117 z m 9.568981,2.17752 c 2.079924,-2.07993 5.402118,-2.05 7.452119,0 2.05001,2.05001 2.124506,5.41678 0.04458,7.4967 -2.079936,2.07994 -5.401396,1.99007 -7.466374,-0.0749 -2.050002,-2.05 -2.110263,-5.34185 -0.03033,-7.42179 z m 5.312295,-5.3123 4.855901,-4.8559 2.982455,2.98246 -4.855901,4.8559 z M 43.3238,402.2912 l 2.334223,-2.33422 c 1.616061,-1.61606 3.187656,-1.87032 4.564305,-0.49367 1.421518,1.42152 1.196939,3.02279 -0.419121,4.63885 l -2.334224,2.33423 z m 19.834687,-10.8727 4.914367,-4.91437 2.922529,2.92253 -6.22618,6.22618 c -0.100341,-1.47674 -0.638818,-2.94894 -1.610716,-4.23434 z"
         style="opacity:1;fill:#747474;fill-opacity:1;fill-rule:nonzero;stroke:none;stroke-width:0.99399531;stroke-linecap:round;stroke-linejoin:round;stroke-miterlimit:4;stroke-dasharray:none;stroke-dashoffset:0;stroke-opacity:1;paint-order:stroke fill markers" />
      <ellipse
         ry="3.0123966"
         rx="3.0124116"
         cy="395.88324"
         cx="57.077496"
         id="path849"
         style="opacity:1;fill:#747474;fill-opacity:1;fill-rule:nonzero;stroke:none;stroke-width:0.99399531;stroke-linecap:round;stroke-linejoin:round;stroke-miterlimit:4;stroke-dasharray:none;stroke-dashoffset:0;stroke-opacity:1;paint-order:stroke fill markers" />
    </g>
  </g>
</svg>
